<svg version="1.1" xmlns="http://www.w3.org/2000/svg" viewBox="0 0 1404.6125600299758 549.1612599383847" width="1404.6125600299758" height="549.1612599383847">
  <!-- svg-source:excalidraw -->
  
  <defs>
    <style class="style-fonts">
      @font-face {
        font-family: "Virgil";
        src: url("https://excalidraw.com/Virgil.woff2");
      }
      @font-face {
        font-family: "Cascadia";
        src: url("https://excalidraw.com/Cascadia.woff2");
      }
    </style>
  </defs>
  <rect x="0" y="0" width="1404.6125600299758" height="549.1612599383847" fill="#ffffff"></rect><g stroke-linecap="round" transform="translate(229.76845661731488 218.9200860545963) rotate(0 29.1610305958132 55.2777777777778)"><path d="M0 0 C12.32 0, 24.65 0, 58.32 0 M0 0 C13.1 0, 26.2 0, 58.32 0 M58.32 0 C58.32 37.44, 58.32 74.88, 58.32 110.56 M58.32 0 C58.32 37.01, 58.32 74.02, 58.32 110.56 M58.32 110.56 C39.16 110.56, 19.99 110.56, 0 110.56 M58.32 110.56 C41.85 110.56, 25.37 110.56, 0 110.56 M0 110.56 C0 77.48, 0 44.41, 0 0 M0 110.56 C0 84.61, 0 58.67, 0 0" stroke="#000000" stroke-width="2" fill="none"></path></g><g stroke-linecap="round" transform="translate(232.4501245552757 224.367751110957) rotate(0 26.420332231545046 48.46819645732691)"><path d="M0 0 L52.84 0 L52.84 96.94 L0 96.94" stroke="none" stroke-width="0" fill="#000000"></path><path d="M0 0 C15.32 0, 30.64 0, 52.84 0 M0 0 C11.77 0, 23.53 0, 52.84 0 M52.84 0 C52.84 37.55, 52.84 75.11, 52.84 96.94 M52.84 0 C52.84 25.48, 52.84 50.96, 52.84 96.94 M52.84 96.94 C35.5 96.94, 18.16 96.94, 0 96.94 M52.84 96.94 C33.97 96.94, 15.11 96.94, 0 96.94 M0 96.94 C0 67.12, 0 37.3, 0 0 M0 96.94 C0 67.63, 0 38.32, 0 0" stroke="#000000" stroke-width="1" fill="none"></path></g><g stroke-linecap="round" transform="translate(249.31596064307973 323.867751110957) rotate(0 9.45330112721416 1.6022544283413822)"><path d="M0.8 0 L18.11 0 L18.71 0.2 L18.91 2.4 L18.11 3.2 L0.8 3.2 L0 2.4 L0.2 0.2 L0.8 0" stroke="none" stroke-width="0" fill="#000000"></path><path d="M0.8 0 M0.8 0 C5.47 0, 10.14 0, 18.11 0 M0.8 0 C7.61 0, 14.42 0, 18.11 0 M18.11 0 C18.64 0, 18.91 0.27, 18.91 0.8 M18.11 0 C18.64 0, 18.91 0.27, 18.91 0.8 M18.91 0.8 C18.91 1.21, 18.91 1.63, 18.91 2.4 M18.91 0.8 C18.91 1.14, 18.91 1.48, 18.91 2.4 M18.91 2.4 C18.91 2.94, 18.64 3.2, 18.11 3.2 M18.91 2.4 C18.91 2.94, 18.64 3.2, 18.11 3.2 M18.11 3.2 C12.42 3.2, 6.73 3.2, 0.8 3.2 M18.11 3.2 C12.6 3.2, 7.1 3.2, 0.8 3.2 M0.8 3.2 C0.27 3.2, 0 2.94, 0 2.4 M0.8 3.2 C0.27 3.2, 0 2.94, 0 2.4 M0 2.4 C0 1.93, 0 1.46, 0 0.8 M0 2.4 C0 2.06, 0 1.72, 0 0.8 M0 0.8 C0 0.27, 0.27 0, 0.8 0 M0 0.8 C0 0.27, 0.27 0, 0.8 0" stroke="#000000" stroke-width="1" fill="none"></path></g><g stroke-linecap="round" transform="translate(248.86297304317782 221.0567096469655) rotate(0 9.21296296296299 0.7210144927536248)"><path d="M0.36 0 L18.07 0 L18.43 1.08 L0.36 1.44 L0.36 0" stroke="none" stroke-width="0" fill="#000000"></path><path d="M0.36 0 M0.36 0 C6.63 0, 12.89 0, 18.07 0 M0.36 0 C5.14 0, 9.92 0, 18.07 0 M18.07 0 C18.31 0, 18.43 0.12, 18.43 0.36 M18.07 0 C18.31 0, 18.43 0.12, 18.43 0.36 M18.43 0.36 C18.43 0.52, 18.43 0.68, 18.43 1.08 M18.43 0.36 C18.43 0.55, 18.43 0.73, 18.43 1.08 M18.43 1.08 C18.43 1.32, 18.31 1.44, 18.07 1.44 M18.43 1.08 C18.43 1.32, 18.31 1.44, 18.07 1.44 M18.07 1.44 C11.04 1.44, 4.01 1.44, 0.36 1.44 M18.07 1.44 C12.24 1.44, 6.42 1.44, 0.36 1.44 M0.36 1.44 C0.12 1.44, 0 1.32, 0 1.08 M0.36 1.44 C0.12 1.44, 0 1.32, 0 1.08 M0 1.08 C0 0.8, 0 0.52, 0 0.36 M0 1.08 C0 0.87, 0 0.66, 0 0.36 M0 0.36 C0 0.12, 0.12 0, 0.36 0 M0 0.36 C0 0.12, 0.12 0, 0.36 0" stroke="#000000" stroke-width="1" fill="none"></path></g><g stroke-linecap="round" transform="translate(1106.2738431198736 190.4167983945229) rotate(0 85.73788279907967 108.10428700753519)"><path d="M0 0 L171.48 0 L171.48 216.21 L0 216.21" stroke="none" stroke-width="0" fill="#0000"></path><path d="M0 0 C50.75 0, 101.49 0, 171.48 0 M0 0 C46.12 0, 92.25 0, 171.48 0 M171.48 0 C171.48 82.83, 171.48 165.67, 171.48 216.21 M171.48 0 C171.48 82.44, 171.48 164.88, 171.48 216.21 M171.48 216.21 C104.29 216.21, 37.11 216.21, 0 216.21 M171.48 216.21 C112.96 216.21, 54.44 216.21, 0 216.21 M0 216.21 C0 172.72, 0 129.22, 0 0 M0 216.21 C0 147.32, 0 78.43, 0 0" stroke="#0000" stroke-width="2" fill="none"></path></g><g stroke-linecap="round"><g transform="translate(1114.4379506064736 325.9868104032087) rotate(0 79.26862563176826 16.688131711951172)" fill-rule="evenodd"><path d="M0 0 L0.46 32.91 L80.66 81.59 L155.76 37.08 L158.54 0 L77.88 -48.21 L0 0" stroke="none" stroke-width="0" fill="#ced4da" fill-rule="evenodd"></path><path d="M0 0 C0.15 10.64, 0.3 21.29, 0.46 32.91 M0 0 C0.12 8.62, 0.24 17.23, 0.46 32.91 M0.46 32.91 C23.38 46.82, 46.3 60.73, 80.66 81.59 M0.46 32.91 C16.5 42.65, 32.54 52.38, 80.66 81.59 M80.66 81.59 C98.94 70.76, 117.21 59.93, 155.76 37.08 M80.66 81.59 C99.91 70.18, 119.16 58.77, 155.76 37.08 M155.76 37.08 C156.72 24.2, 157.69 11.31, 158.54 0 M155.76 37.08 C156.68 24.74, 157.61 12.39, 158.54 0 M158.54 0 C126.91 -18.9, 95.28 -37.81, 77.88 -48.21 M158.54 0 C130.03 -17.04, 101.51 -34.08, 77.88 -48.21 M77.88 -48.21 C49.83 -30.85, 21.79 -13.49, 0 0 M77.88 -48.21 C49.35 -30.55, 20.83 -12.89, 0 0 M0 0 C0 0, 0 0, 0 0 M0 0 C0 0, 0 0, 0 0" stroke="#495057" stroke-width="2" fill="none"></path></g></g><mask></mask><g stroke-linecap="round"><g transform="translate(1194.6336946666918 404.3283176065395) rotate(0 1.1368683772161603e-13 -15.761013283509442)"><path d="M0 0 C0 -10.24, 0 -20.49, 0 -31.52 M0 0 C0 -10.67, 0 -21.34, 0 -31.52" stroke="#495057" stroke-width="2" fill="none"></path></g></g><mask></mask><g stroke-linecap="round"><g transform="translate(1115.3650690349189 326.91392883165037) rotate(0 77.64616838199515 22.714401496822376)"><path d="M0 0 C18.35 10.52, 36.7 21.03, 79.27 45.43 M0 0 C16.4 9.4, 32.8 18.8, 79.27 45.43 M79.27 45.43 C108.64 28.77, 138.01 12.12, 155.29 2.32 M79.27 45.43 C103.72 31.56, 128.18 17.69, 155.29 2.32" stroke="#495057" stroke-width="2" fill="none"></path></g></g><mask></mask><g stroke-linecap="round"><g transform="translate(1201.5870828800016 388.1037451088082) rotate(0 18.629434257052708 -10.430082319969472)"><path d="M0 0 C14.38 -8.05, 28.76 -16.1, 37.26 -20.86 M0 0 C14.71 -8.24, 29.42 -16.47, 37.26 -20.86" stroke="#495057" stroke-width="2" fill="none"></path></g></g><mask></mask><g stroke-linecap="round"><g transform="translate(1245.9299858473255 359.32064373993603) rotate(0 9.68959162712315 -1.3364953968446116)" fill-rule="evenodd"><path d="M0 0 L0.22 8.46 L17.92 -3.04 L19.38 -11.14 L0 0" stroke="none" stroke-width="0" fill="#ced4da" fill-rule="evenodd"></path><path d="M0 0 C0.09 3.32, 0.17 6.63, 0.22 8.46 M0 0 C0.07 2.69, 0.14 5.39, 0.22 8.46 M0.22 8.46 C5.09 5.3, 9.95 2.14, 17.92 -3.04 M0.22 8.46 C5.82 4.82, 11.43 1.18, 17.92 -3.04 M17.92 -3.04 C18.3 -5.15, 18.68 -7.25, 19.38 -11.14 M17.92 -3.04 C18.23 -4.75, 18.54 -6.45, 19.38 -11.14 M19.38 -11.14 C13.57 -7.8, 7.77 -4.46, 0 0 M19.38 -11.14 C12.87 -7.4, 6.37 -3.66, 0 0 M0 0 C0 0, 0 0, 0 0 M0 0 C0 0, 0 0, 0 0" stroke="#495057" stroke-width="1" fill="none"></path></g></g><mask></mask><g stroke-linecap="round"><g transform="translate(1114.0879160977897 282.2843126019542) rotate(0 79.26862563176826 16.688131711951115)" fill-rule="evenodd"><path d="M0 0 L0.46 32.91 L80.66 81.59 L155.76 37.08 L158.54 0 L77.88 -48.21 L0 0" stroke="none" stroke-width="0" fill="#ced4da" fill-rule="evenodd"></path><path d="M0 0 C0.12 8.73, 0.25 17.46, 0.46 32.91 M0 0 C0.16 11.28, 0.32 22.55, 0.46 32.91 M0.46 32.91 C21.34 45.59, 42.22 58.26, 80.66 81.59 M0.46 32.91 C29.34 50.44, 58.22 67.97, 80.66 81.59 M80.66 81.59 C100 70.13, 119.33 58.67, 155.76 37.08 M80.66 81.59 C99.4 70.48, 118.14 59.38, 155.76 37.08 M155.76 37.08 C156.51 27.05, 157.26 17.01, 158.54 0 M155.76 37.08 C156.57 26.17, 157.39 15.26, 158.54 0 M158.54 0 C141.8 -10.01, 125.05 -20.01, 77.88 -48.21 M158.54 0 C130.7 -16.64, 102.86 -33.28, 77.88 -48.21 M77.88 -48.21 C56.68 -35.09, 35.48 -21.97, 0 0 M77.88 -48.21 C49.28 -30.5, 20.68 -12.8, 0 0 M0 0 C0 0, 0 0, 0 0 M0 0 C0 0, 0 0, 0 0" stroke="#495057" stroke-width="2" fill="none"></path></g></g><mask></mask><g stroke-linecap="round"><g transform="translate(1194.2836601579786 360.62581980527716) rotate(0 1.1368683772161603e-13 -15.761013283509442)"><path d="M0 0 C0 -7.82, 0 -15.63, 0 -31.52 M0 0 C0 -10.21, 0 -20.43, 0 -31.52" stroke="#495057" stroke-width="2" fill="none"></path></g></g><mask></mask><g stroke-linecap="round"><g transform="translate(1115.0150345262182 283.21143103039475) rotate(0 77.64616838199515 22.714401496822376)"><path d="M0 0 C23.08 13.23, 46.16 26.46, 79.27 45.43 M0 0 C26.2 15.01, 52.4 30.03, 79.27 45.43 M79.27 45.43 C108.31 28.96, 137.34 12.5, 155.29 2.32 M79.27 45.43 C95.8 36.05, 112.33 26.68, 155.29 2.32" stroke="#495057" stroke-width="2" fill="none"></path></g></g><mask></mask><g stroke-linecap="round"><g transform="translate(1201.2370483712998 344.40124730755076) rotate(0 19.469486997276476 -10.430082319969443)"><path d="M0 0 C9.15 -4.9, 18.3 -9.8, 38.94 -20.86 M0 0 C13.67 -7.32, 27.34 -14.64, 38.94 -20.86" stroke="#495057" stroke-width="2" fill="none"></path></g></g><mask></mask><g stroke-linecap="round"><g transform="translate(1246.8400304489628 314.35806682834425) rotate(0 8.198498013226185 -0.8891673126751982)" fill-rule="evenodd"><path d="M0 0 L0.22 8.46 L16.02 -0.89 L16.4 -10.24 L0 0" stroke="none" stroke-width="0" fill="#ced4da" fill-rule="evenodd"></path><path d="M0 0 C0.09 3.33, 0.18 6.66, 0.22 8.46 M0 0 C0.08 2.89, 0.15 5.79, 0.22 8.46 M0.22 8.46 C6.07 5.01, 11.91 1.55, 16.02 -0.89 M0.22 8.46 C3.74 6.38, 7.25 4.3, 16.02 -0.89 M16.02 -0.89 C16.12 -3.41, 16.23 -5.94, 16.4 -10.24 M16.02 -0.89 C16.17 -4.62, 16.32 -8.35, 16.4 -10.24 M16.4 -10.24 C11.94 -7.46, 7.47 -4.67, 0 0 M16.4 -10.24 C11.39 -7.11, 6.38 -3.99, 0 0 M0 0 C0 0, 0 0, 0 0 M0 0 C0 0, 0 0, 0 0" stroke="#495057" stroke-width="1" fill="none"></path></g></g><mask></mask><g stroke-linecap="round"><g transform="translate(1113.7378815890777 239.1782522462571) rotate(0 79.26862563176826 16.688131711951087)" fill-rule="evenodd"><path d="M0 0 L0.46 32.91 L80.66 81.59 L155.76 37.08 L158.54 0 L77.88 -48.21 L0 0" stroke="none" stroke-width="0" fill="#ced4da" fill-rule="evenodd"></path><path d="M0 0 C0.12 8.85, 0.25 17.71, 0.46 32.91 M0 0 C0.18 12.61, 0.36 25.22, 0.46 32.91 M0.46 32.91 C31.04 51.47, 61.62 70.03, 80.66 81.59 M0.46 32.91 C31.88 51.98, 63.3 71.05, 80.66 81.59 M80.66 81.59 C106.29 66.4, 131.91 51.21, 155.76 37.08 M80.66 81.59 C95.77 72.63, 110.87 63.68, 155.76 37.08 M155.76 37.08 C156.64 25.27, 157.53 13.45, 158.54 0 M155.76 37.08 C156.75 23.89, 157.74 10.69, 158.54 0 M158.54 0 C132.02 -15.85, 105.5 -31.7, 77.88 -48.21 M158.54 0 C128.79 -17.78, 99.05 -35.55, 77.88 -48.21 M77.88 -48.21 C56.11 -34.74, 34.35 -21.26, 0 0 M77.88 -48.21 C52.6 -32.56, 27.33 -16.92, 0 0 M0 0 C0 0, 0 0, 0 0 M0 0 C0 0, 0 0, 0 0" stroke="#495057" stroke-width="2" fill="none"></path></g></g><mask></mask><g stroke-linecap="round"><g transform="translate(1193.9336256492986 317.5197594495779) rotate(0 1.1368683772161603e-13 -15.761013283509442)"><path d="M0 0 C0 -8.25, 0 -16.51, 0 -31.52 M0 0 C0 -9.01, 0 -18.02, 0 -31.52" stroke="#495057" stroke-width="2" fill="none"></path></g></g><mask></mask><g stroke-linecap="round"><g transform="translate(1114.6650000175375 240.10537067469602) rotate(0 77.64616838199515 22.714401496822376)"><path d="M0 0 C26.83 15.38, 53.67 30.76, 79.27 45.43 M0 0 C17.54 10.05, 35.08 20.11, 79.27 45.43 M79.27 45.43 C97.21 35.26, 115.15 25.08, 155.29 2.32 M79.27 45.43 C96.36 35.73, 113.46 26.04, 155.29 2.32" stroke="#495057" stroke-width="2" fill="none"></path></g></g><mask></mask><g stroke-linecap="round"><g transform="translate(1200.8870138626098 301.2951869518483) rotate(0 19.469486997276476 -10.430082319969443)"><path d="M0 0 C8.06 -4.32, 16.11 -8.63, 38.94 -20.86 M0 0 C15.04 -8.06, 30.09 -16.12, 38.94 -20.86" stroke="#495057" stroke-width="2" fill="none"></path></g></g><mask></mask><g stroke-linecap="round"><g transform="translate(1246.4899959402635 271.2520064726458) rotate(0 8.944044820174554 -0.7400579512856496)" fill-rule="evenodd"><path d="M0 0 L0.22 8.46 L16.92 -0.59 L17.89 -9.94 L0 0" stroke="none" stroke-width="0" fill="#ced4da" fill-rule="evenodd"></path><path d="M0 0 C0.09 3.34, 0.18 6.68, 0.22 8.46 M0 0 C0.08 2.9, 0.15 5.8, 0.22 8.46 M0.22 8.46 C5.3 5.71, 10.39 2.95, 16.92 -0.59 M0.22 8.46 C5.32 5.7, 10.42 2.93, 16.92 -0.59 M16.92 -0.59 C17.19 -3.23, 17.47 -5.87, 17.89 -9.94 M16.92 -0.59 C17.16 -2.91, 17.4 -5.24, 17.89 -9.94 M17.89 -9.94 C13.99 -7.78, 10.09 -5.61, 0 0 M17.89 -9.94 C11.98 -6.66, 6.07 -3.38, 0 0 M0 0 C0 0, 0 0, 0 0 M0 0 C0 0, 0 0, 0 0" stroke="#495057" stroke-width="1" fill="none"></path></g></g><mask></mask><g transform="translate(1334.864872716465 346.77867071703304) rotate(0 20 10)"><text x="0" y="14" font-family="Virgil, Segoe UI Emoji" font-size="15.089140210557694px" fill="#000" text-anchor="start" style="white-space: pre;" direction="ltr">Java</text></g><g stroke-linecap="round" transform="translate(1320.917155460877 252.9778539067405) rotate(0 33.14263671184494 45.166757957109326)"><path d="M-1.64 -0.37 L66.47 0.22 L67.57 89.77 L0.41 88.55" stroke="none" stroke-width="0" fill="#f5f3f6"></path><path d="M0.88 -0.05 C22.94 0.26, 48.25 -2.24, 66.02 0.52 M-0.07 -0.14 C17.43 0.98, 35.55 1.26, 66.74 0.85 M67.92 -0.99 C65.23 26.01, 63.83 51.4, 66.82 89.69 M65.84 -0.76 C66.45 26.75, 65.62 53.63, 65.69 89.47 M67.59 89.58 C39.88 90.64, 11.69 91.25, 0.41 88.45 M65.96 91.22 C38.97 89.33, 13.72 89.74, 0.16 90.23 M-0.38 90.44 C-0.07 59.44, -0.48 27.07, 1.39 -1.66 M-0.51 90.86 C-0.31 69.98, 0.01 48.32, 0.27 0.05" stroke="#000000" stroke-width="4" fill="none"></path></g><g stroke-linecap="round" transform="translate(1341.6708969943395 263.8618154270761) rotate(0 26.47083151781817 11.316855157918269)"><path d="M-0.37 0.19 L53.16 1.28 L52.38 23.05 L-1.78 22.29" stroke="none" stroke-width="0" fill="#fff"></path><path d="M-0.05 -1.99 C20.74 -1.84, 38.3 -0.5, 53.47 -0.78 M-0.14 0.13 C19.05 0.97, 37.84 0.49, 53.79 -0.1 M51.95 -0.21 C52.61 3.07, 51.76 9.92, 52.3 22.52 M52.18 0.58 C53.07 5.51, 53.35 10.95, 52.08 23.63 M52.19 22.72 C42.09 21.37, 31.51 23.39, -1.88 24.58 M53.83 21.66 C36.41 22.56, 21.15 22.62, -0.11 23.14 M0.11 22.82 C0.65 14.98, -0.1 9.17, -1.66 -1.34 M0.53 22.88 C0.81 15.01, 0.2 6.51, 0.05 -0.82" stroke="#000000" stroke-width="4" fill="none"></path></g><g transform="translate(1351.6917623920863 265.9597458337199) rotate(0 20 10)"><text x="0" y="14" font-family="Virgil, Segoe UI Emoji" font-size="15.089140210557694px" fill="#000000" text-anchor="start" style="white-space: pre;" direction="ltr">Java</text></g><g stroke-linecap="round"><g transform="translate(1348.7801844632436 319.88912519661386) rotate(0 3.111441137985139 1.3761560083370057)" fill-rule="evenodd"><path d="M0 0 L-4.85 2.21 L3.68 2.7 L11.12 1.83 L-2.73 2.09 L-2.49 1.19 L0.04 0.01" stroke="none" stroke-width="0" fill="#1555a1" fill-rule="evenodd"></path><path d="M0 0 C-0.75 0.28, -3.9 1.26, -4.52 1.69 C-5.14 2.11, -5.07 2.37, -3.7 2.54 C-2.34 2.71, 1.21 2.82, 3.68 2.7 C6.15 2.58, 11.06 1.88, 11.12 1.83 C11.17 1.78, 5.81 2.3, 4.02 2.4 C2.23 2.5, 1.49 2.5, 0.37 2.44 C-0.76 2.39, -2.26 2.3, -2.73 2.09 C-3.21 1.88, -2.95 1.54, -2.49 1.19 C-2.03 0.84, -0.38 0.2, 0.04 0.01 M0 0 C-0.75 0.28, -3.9 1.26, -4.52 1.69 C-5.14 2.11, -5.07 2.37, -3.7 2.54 C-2.34 2.71, 1.21 2.82, 3.68 2.7 C6.15 2.58, 11.06 1.88, 11.12 1.83 C11.17 1.78, 5.81 2.3, 4.02 2.4 C2.23 2.5, 1.49 2.5, 0.37 2.44 C-0.76 2.39, -2.26 2.3, -2.73 2.09 C-3.21 1.88, -2.95 1.54, -2.49 1.19 C-2.03 0.84, -0.38 0.2, 0.04 0.01" stroke="#1555a1" stroke-width="1" fill="none"></path></g></g><mask></mask><g stroke-linecap="round"><g transform="translate(1361.8721157439343 320.5018989408737) rotate(0 1.841230332252735 2.9225031741322027)" fill-rule="evenodd"><path d="M0 0 L2.2 0.28 L3 1.28 L1.28 4.47 L-0.91 6.1 L3.48 3.69 L4.56 1.74 L4.17 0.29 L2.79 -0.26 L-0.01 -0.01" stroke="none" stroke-width="0" fill="#1555a1" fill-rule="evenodd"></path><path d="M0 0 C0.37 0.05, 1.7 0.06, 2.2 0.28 C2.7 0.49, 2.91 0.9, 3 1.28 C3.1 1.66, 3.06 2.04, 2.78 2.57 C2.49 3.1, 1.9 3.88, 1.28 4.47 C0.67 5.06, -0.96 6, -0.91 6.1 C-0.85 6.2, 0.88 5.47, 1.62 5.07 C2.35 4.66, 2.99 4.24, 3.48 3.69 C3.97 3.13, 4.44 2.3, 4.56 1.74 C4.67 1.17, 4.47 0.62, 4.17 0.29 C3.88 -0.04, 3.49 -0.21, 2.79 -0.26 C2.09 -0.31, 0.45 -0.05, -0.01 -0.01 M0 0 C0.37 0.05, 1.7 0.06, 2.2 0.28 C2.7 0.49, 2.91 0.9, 3 1.28 C3.1 1.66, 3.06 2.04, 2.78 2.57 C2.49 3.1, 1.9 3.88, 1.28 4.47 C0.67 5.06, -0.96 6, -0.91 6.1 C-0.85 6.2, 0.88 5.47, 1.62 5.07 C2.35 4.66, 2.99 4.24, 3.48 3.69 C3.97 3.13, 4.44 2.3, 4.56 1.74 C4.67 1.17, 4.47 0.62, 4.17 0.29 C3.88 -0.04, 3.49 -0.21, 2.79 -0.26 C2.09 -0.31, 0.45 -0.05, -0.01 -0.01" stroke="#1555a1" stroke-width="1" fill="none"></path></g></g><mask></mask><g stroke-linecap="round"><g transform="translate(1347.5773072999252 324.30849464399125) rotate(0 5.1998478560155945 1.2595334871745933)" fill-rule="evenodd"><path d="M0 0 L-1.13 1.15 L0.1 2.22 L5.74 2.49 L11.18 1.64 L10.67 0.9 L0.27 1.13 L0 0.14" stroke="none" stroke-width="0" fill="#1555a1" fill-rule="evenodd"></path><path d="M0 0 C-0.19 0.19, -1.14 0.78, -1.13 1.15 C-1.11 1.52, -1.04 2, 0.1 2.22 C1.25 2.44, 3.89 2.58, 5.74 2.49 C7.58 2.39, 10.36 1.9, 11.18 1.64 C12.01 1.37, 11.15 0.99, 10.67 0.9 C10.19 0.8, 9.15 1, 8.3 1.07 C7.45 1.13, 6.55 1.21, 5.57 1.27 C4.58 1.33, 3.24 1.43, 2.36 1.4 C1.48 1.38, 0.66 1.34, 0.27 1.13 C-0.12 0.92, 0.05 0.31, 0 0.14 M0 0 C-0.19 0.19, -1.14 0.78, -1.13 1.15 C-1.11 1.52, -1.04 2, 0.1 2.22 C1.25 2.44, 3.89 2.58, 5.74 2.49 C7.58 2.39, 10.36 1.9, 11.18 1.64 C12.01 1.37, 11.15 0.99, 10.67 0.9 C10.19 0.8, 9.15 1, 8.3 1.07 C7.45 1.13, 6.55 1.21, 5.57 1.27 C4.58 1.33, 3.24 1.43, 2.36 1.4 C1.48 1.38, 0.66 1.34, 0.27 1.13 C-0.12 0.92, 0.05 0.31, 0 0.14" stroke="#1555a1" stroke-width="1" fill="none"></path></g></g><mask></mask><g stroke-linecap="round"><g transform="translate(1348.4517513896653 327.8410470018739) rotate(0 4.602993224405964 1.4357469556922524)" fill-rule="evenodd"><path d="M0 0 L-1.01 0.91 L1.22 2.61 L5.22 2.84 L9.78 2.05 L9.99 1.29 L1.52 1.34 L0.15 0.86 L0 0" stroke="none" stroke-width="0" fill="#1555a1" fill-rule="evenodd"></path><path d="M0 0 C-0.17 0.15, -0.94 0.6, -1.01 0.91 C-1.09 1.23, -0.82 1.61, -0.45 1.9 C-0.08 2.18, 0.27 2.46, 1.22 2.61 C2.16 2.77, 3.79 2.94, 5.22 2.84 C6.65 2.75, 8.98 2.31, 9.78 2.05 C10.57 1.79, 10.12 1.45, 9.99 1.29 C9.86 1.13, 9.36 1.11, 9 1.09 C8.63 1.07, 8.28 1.11, 7.8 1.15 C7.33 1.19, 6.81 1.26, 6.14 1.32 C5.47 1.39, 4.55 1.53, 3.78 1.54 C3.01 1.54, 2.13 1.46, 1.52 1.34 C0.92 1.23, 0.4 1.08, 0.15 0.86 C-0.1 0.63, 0.02 0.14, 0 0 M0 0 C-0.17 0.15, -0.94 0.6, -1.01 0.91 C-1.09 1.23, -0.82 1.61, -0.45 1.9 C-0.08 2.18, 0.27 2.46, 1.22 2.61 C2.16 2.77, 3.79 2.94, 5.22 2.84 C6.65 2.75, 8.98 2.31, 9.78 2.05 C10.57 1.79, 10.12 1.45, 9.99 1.29 C9.86 1.13, 9.36 1.11, 9 1.09 C8.63 1.07, 8.28 1.11, 7.8 1.15 C7.33 1.19, 6.81 1.26, 6.14 1.32 C5.47 1.39, 4.55 1.53, 3.78 1.54 C3.01 1.54, 2.13 1.46, 1.52 1.34 C0.92 1.23, 0.4 1.08, 0.15 0.86 C-0.1 0.63, 0.02 0.14, 0 0" stroke="#1555a1" stroke-width="1" fill="none"></path></g></g><mask></mask><g stroke-linecap="round"><g transform="translate(1364.272473340294 331.09245284541976) rotate(0 -11.776423927237488 1.2064269526583757)" fill-rule="evenodd"><path d="M0 0 L-3.28 2.05 L-10.46 2.73 L-19.72 2.56 L-22.5 2.28 L-23.55 1.43 L-18.97 -0.34 L-21.97 0.98 L-16.33 1.86 L-7.31 1.9 L-3.04 1.43 L0 0" stroke="none" stroke-width="0" fill="#1555a1" fill-rule="evenodd"></path><path d="M0 0 C-0.14 0.15, -0.57 0.68, -0.82 0.92 C-1.08 1.15, -1.14 1.24, -1.55 1.43 C-1.96 1.62, -2.58 1.89, -3.28 2.05 C-3.97 2.22, -4.53 2.3, -5.73 2.42 C-6.93 2.53, -8.88 2.67, -10.46 2.73 C-12.03 2.78, -13.63 2.77, -15.18 2.74 C-16.72 2.71, -18.5 2.64, -19.72 2.56 C-20.94 2.48, -21.86 2.46, -22.5 2.28 C-23.14 2.09, -23.53 1.72, -23.55 1.43 C-23.58 1.15, -23.09 0.83, -22.65 0.57 C-22.22 0.32, -21.55 0.08, -20.94 -0.08 C-20.33 -0.23, -18.98 -0.39, -18.97 -0.34 C-18.96 -0.3, -20.41 -0.03, -20.91 0.19 C-21.41 0.41, -21.89 0.78, -21.97 0.98 C-22.06 1.18, -21.8 1.3, -21.42 1.4 C-21.05 1.51, -20.57 1.53, -19.73 1.6 C-18.88 1.68, -17.39 1.79, -16.33 1.86 C-15.27 1.92, -14.86 1.97, -13.36 1.97 C-11.85 1.98, -9.02 1.99, -7.31 1.9 C-5.59 1.81, -4.07 1.61, -3.04 1.43 C-2.01 1.25, -1.62 1.04, -1.12 0.8 C-0.61 0.57, -0.19 0.13, 0 0 M0 0 C-0.14 0.15, -0.57 0.68, -0.82 0.92 C-1.08 1.15, -1.14 1.24, -1.55 1.43 C-1.96 1.62, -2.58 1.89, -3.28 2.05 C-3.97 2.22, -4.53 2.3, -5.73 2.42 C-6.93 2.53, -8.88 2.67, -10.46 2.73 C-12.03 2.78, -13.63 2.77, -15.18 2.74 C-16.72 2.71, -18.5 2.64, -19.72 2.56 C-20.94 2.48, -21.86 2.46, -22.5 2.28 C-23.14 2.09, -23.53 1.72, -23.55 1.43 C-23.58 1.15, -23.09 0.83, -22.65 0.57 C-22.22 0.32, -21.55 0.08, -20.94 -0.08 C-20.33 -0.23, -18.98 -0.39, -18.97 -0.34 C-18.96 -0.3, -20.41 -0.03, -20.91 0.19 C-21.41 0.41, -21.89 0.78, -21.97 0.98 C-22.06 1.18, -21.8 1.3, -21.42 1.4 C-21.05 1.51, -20.57 1.53, -19.73 1.6 C-18.88 1.68, -17.39 1.79, -16.33 1.86 C-15.27 1.92, -14.86 1.97, -13.36 1.97 C-11.85 1.98, -9.02 1.99, -7.31 1.9 C-5.59 1.81, -4.07 1.61, -3.04 1.43 C-2.01 1.25, -1.62 1.04, -1.12 0.8 C-0.61 0.57, -0.19 0.13, 0 0" stroke="#1555a1" stroke-width="1" fill="none"></path></g></g><mask></mask><g stroke-linecap="round"><g transform="translate(1345.8595600814065 335.03455655942594) rotate(0 10.139218192441035 -0.5380943132497009)" fill-rule="evenodd"><path d="M0 0 L4.32 0.74 L13.97 0.63 L18.18 -0.24 L20.3 -1.88 L15.96 -0.28 L-0.02 0.03" stroke="none" stroke-width="0" fill="#1555a1" fill-rule="evenodd"></path><path d="M0 0 C0.3 0.09, 1.06 0.39, 1.78 0.51 C2.5 0.64, 2.98 0.69, 4.32 0.74 C5.66 0.79, 8.2 0.83, 9.81 0.81 C11.41 0.79, 12.86 0.7, 13.97 0.63 C15.08 0.55, 15.75 0.5, 16.45 0.36 C17.15 0.22, 17.53 0.14, 18.18 -0.24 C18.82 -0.61, 20.25 -1.78, 20.3 -1.88 C20.35 -1.99, 19.22 -1.16, 18.49 -0.89 C17.77 -0.62, 16.95 -0.43, 15.96 -0.28 C14.97 -0.12, 13.76 -0.03, 12.57 0.04 C11.38 0.11, 9.94 0.12, 8.84 0.13 C7.73 0.15, 6.87 0.16, 5.94 0.14 C5 0.13, 4.21 0.08, 3.22 0.06 C2.22 0.05, 0.52 0.03, -0.02 0.03 M0 0 C0.3 0.09, 1.06 0.39, 1.78 0.51 C2.5 0.64, 2.98 0.69, 4.32 0.74 C5.66 0.79, 8.2 0.83, 9.81 0.81 C11.41 0.79, 12.86 0.7, 13.97 0.63 C15.08 0.55, 15.75 0.5, 16.45 0.36 C17.15 0.22, 17.53 0.14, 18.18 -0.24 C18.82 -0.61, 20.25 -1.78, 20.3 -1.88 C20.35 -1.99, 19.22 -1.16, 18.49 -0.89 C17.77 -0.62, 16.95 -0.43, 15.96 -0.28 C14.97 -0.12, 13.76 -0.03, 12.57 0.04 C11.38 0.11, 9.94 0.12, 8.84 0.13 C7.73 0.15, 6.87 0.16, 5.94 0.14 C5 0.13, 4.21 0.08, 3.22 0.06 C2.22 0.05, 0.52 0.03, -0.02 0.03" stroke="#1555a1" stroke-width="1" fill="none"></path></g></g><mask></mask><g stroke-linecap="round"><g transform="translate(1357.1268918166331 301.00794946574223) rotate(0 -3.5563936932072693 9.314740515235059)" fill-rule="evenodd"><path d="M0 0 L0.78 1.82 L0.21 5.03 L-6.03 12.48 L-6.09 14.22 L-3.92 18.63 L-7.05 15.15 L-8 12.22 L-6.29 9.42 L-0.31 3.86 L-0.13 -0.05" stroke="none" stroke-width="0" fill="#fc090f" fill-rule="evenodd"></path><path d="M0 0 C0.13 0.3, 0.64 1.28, 0.78 1.82 C0.92 2.37, 0.93 2.75, 0.83 3.29 C0.74 3.82, 0.55 4.47, 0.21 5.03 C-0.13 5.6, -0.71 6.14, -1.2 6.66 C-1.7 7.18, -2.09 7.5, -2.74 8.17 C-3.39 8.83, -4.54 9.93, -5.09 10.64 C-5.64 11.36, -5.86 11.88, -6.03 12.48 C-6.2 13.07, -6.2 13.64, -6.09 14.22 C-5.99 14.81, -5.7 15.38, -5.38 16 C-5.06 16.62, -4.42 17.52, -4.17 17.96 C-3.93 18.4, -3.66 18.85, -3.92 18.63 C-4.18 18.4, -5.2 17.22, -5.72 16.64 C-6.24 16.06, -6.7 15.65, -7.05 15.15 C-7.4 14.66, -7.64 14.15, -7.8 13.66 C-7.96 13.17, -8.03 12.65, -8 12.22 C-7.97 11.79, -7.92 11.54, -7.63 11.08 C-7.35 10.61, -6.95 10.05, -6.29 9.42 C-5.62 8.79, -4.44 7.95, -3.64 7.31 C-2.85 6.67, -2.07 6.17, -1.51 5.59 C-0.95 5.02, -0.58 4.45, -0.31 3.86 C-0.03 3.27, 0.13 2.7, 0.16 2.05 C0.19 1.4, -0.08 0.3, -0.13 -0.05 M0 0 C0.13 0.3, 0.64 1.28, 0.78 1.82 C0.92 2.37, 0.93 2.75, 0.83 3.29 C0.74 3.82, 0.55 4.47, 0.21 5.03 C-0.13 5.6, -0.71 6.14, -1.2 6.66 C-1.7 7.18, -2.09 7.5, -2.74 8.17 C-3.39 8.83, -4.54 9.93, -5.09 10.64 C-5.64 11.36, -5.86 11.88, -6.03 12.48 C-6.2 13.07, -6.2 13.64, -6.09 14.22 C-5.99 14.81, -5.7 15.38, -5.38 16 C-5.06 16.62, -4.42 17.52, -4.17 17.96 C-3.93 18.4, -3.66 18.85, -3.92 18.63 C-4.18 18.4, -5.2 17.22, -5.72 16.64 C-6.24 16.06, -6.7 15.65, -7.05 15.15 C-7.4 14.66, -7.64 14.15, -7.8 13.66 C-7.96 13.17, -8.03 12.65, -8 12.22 C-7.97 11.79, -7.92 11.54, -7.63 11.08 C-7.35 10.61, -6.95 10.05, -6.29 9.42 C-5.62 8.79, -4.44 7.95, -3.64 7.31 C-2.85 6.67, -2.07 6.17, -1.51 5.59 C-0.95 5.02, -0.58 4.45, -0.31 3.86 C-0.03 3.27, 0.13 2.7, 0.16 2.05 C0.19 1.4, -0.08 0.3, -0.13 -0.05" stroke="#fc090f" stroke-width="1" fill="none"></path></g></g><mask></mask><g stroke-linecap="round"><g transform="translate(1361.0666298489273 308.22327352947354) rotate(0 -3.611654105712546 6.4390947033127475)" fill-rule="evenodd"><path d="M0 0 L-5.05 2.32 L-7.13 4.94 L-7.1 7.2 L-5.25 10.82 L-6.44 12.68 L-3.62 9.86 L-5.33 6.8 L-5.43 4.91 L-0.02 0.02" stroke="none" stroke-width="0" fill="#fc090f" fill-rule="evenodd"></path><path d="M0 0 C-0.39 0.14, -1.76 0.6, -2.34 0.83 C-2.93 1.07, -3.04 1.15, -3.49 1.4 C-3.94 1.65, -4.6 1.97, -5.05 2.32 C-5.51 2.66, -5.87 3.03, -6.21 3.47 C-6.56 3.9, -6.98 4.32, -7.13 4.94 C-7.28 5.56, -7.23 6.56, -7.1 7.2 C-6.98 7.84, -6.63 8.33, -6.36 8.76 C-6.09 9.19, -5.66 9.43, -5.48 9.78 C-5.29 10.12, -5.08 10.33, -5.25 10.82 C-5.41 11.3, -6.25 12.37, -6.44 12.68 C-6.63 12.99, -6.67 12.89, -6.39 12.7 C-6.1 12.5, -5.2 11.99, -4.74 11.52 C-4.28 11.05, -3.76 10.4, -3.62 9.86 C-3.49 9.33, -3.63 8.83, -3.92 8.32 C-4.2 7.8, -5.07 7.37, -5.33 6.8 C-5.58 6.23, -5.55 5.44, -5.43 4.91 C-5.31 4.39, -5.07 4.15, -4.6 3.64 C-4.13 3.13, -3.35 2.46, -2.59 1.85 C-1.83 1.25, -0.45 0.32, -0.02 0.02 M0 0 C-0.39 0.14, -1.76 0.6, -2.34 0.83 C-2.93 1.07, -3.04 1.15, -3.49 1.4 C-3.94 1.65, -4.6 1.97, -5.05 2.32 C-5.51 2.66, -5.87 3.03, -6.21 3.47 C-6.56 3.9, -6.98 4.32, -7.13 4.94 C-7.28 5.56, -7.23 6.56, -7.1 7.2 C-6.98 7.84, -6.63 8.33, -6.36 8.76 C-6.09 9.19, -5.66 9.43, -5.48 9.78 C-5.29 10.12, -5.08 10.33, -5.25 10.82 C-5.41 11.3, -6.25 12.37, -6.44 12.68 C-6.63 12.99, -6.67 12.89, -6.39 12.7 C-6.1 12.5, -5.2 11.99, -4.74 11.52 C-4.28 11.05, -3.76 10.4, -3.62 9.86 C-3.49 9.33, -3.63 8.83, -3.92 8.32 C-4.2 7.8, -5.07 7.37, -5.33 6.8 C-5.58 6.23, -5.55 5.44, -5.43 4.91 C-5.31 4.39, -5.07 4.15, -4.6 3.64 C-4.13 3.13, -3.35 2.46, -2.59 1.85 C-1.83 1.25, -0.45 0.32, -0.02 0.02" stroke="#fc090f" stroke-width="1" fill="none"></path></g></g><mask></mask><g transform="translate(29.857199446646632 312.0286707170332) rotate(0 20 10)"><text x="0" y="14" font-family="Virgil, Segoe UI Emoji" font-size="15.089140210557694px" fill="#000" text-anchor="start" style="white-space: pre;" direction="ltr">Java</text></g><g stroke-linecap="round" transform="translate(15.9094821910586 218.2278539067405) rotate(0 33.14263671184494 45.1667579571093)"><path d="M0 1.28 L67.06 0.1 L67.89 89.43 L0.67 89.23" stroke="none" stroke-width="0" fill="#f5f3f6"></path><path d="M0.08 -0.15 C23.35 -0.22, 48.82 -1.62, 66.59 -1.97 M0.63 -0.09 C19.17 -0.32, 37.23 -0.41, 65.99 -0.58 M66.63 1.62 C66.91 35.64, 66.7 70.55, 66.83 90.27 M66.29 -0.14 C65.89 28.17, 66.97 56.71, 65.53 89.95 M66.61 89.16 C41.6 91, 19.82 89.13, -1.25 89.75 M65.8 90.76 C42.34 90.39, 18.29 90.72, 1 90.69 M1.02 90.69 C-2.13 58.68, -0.25 26.58, -1.56 -1.78 M0.41 89.5 C-0.59 59.12, -1.37 27.77, 0.97 0.52" stroke="#000000" stroke-width="4" fill="none"></path></g><g stroke-linecap="round" transform="translate(36.66322372452089 229.11181542707607) rotate(0 26.470831517818198 11.316855157918269)"><path d="M1.28 0.78 L53.04 1.61 L52.04 23.3 L-1.1 21.38" stroke="none" stroke-width="0" fill="#fff"></path><path d="M-0.15 -0.99 C17.48 0.12, 33.2 0.28, 50.97 -0.51 M-0.09 0.96 C16.62 0.48, 33.47 -0.63, 52.36 0.91 M54.56 1.47 C53.34 5.93, 52.91 9.87, 52.88 22.97 M52.8 -0.65 C52.39 7.85, 52.32 14.07, 52.55 23.12 M51.77 21.05 C35.15 22.45, 14.53 21.47, -0.58 23.83 M53.37 22.54 C41.39 22.07, 29.86 23.37, 0.36 23.25 M0.36 21.11 C1.27 14.68, 1.88 4.48, -1.78 0.91 M-0.84 22.54 C-0.19 13.72, -0.34 7.51, 0.52 0" stroke="#000000" stroke-width="4" fill="none"></path></g><g transform="translate(46.68408912226789 231.20974583371992) rotate(0 20 10)"><text x="0" y="14" font-family="Virgil, Segoe UI Emoji" font-size="15.089140210557694px" fill="#000000" text-anchor="start" style="white-space: pre;" direction="ltr">Java</text></g><g stroke-linecap="round"><g transform="translate(43.7725111934252 285.139125196614) rotate(0 3.111441137985082 1.3761560083370057)" fill-rule="evenodd"><path d="M0 0 L-4.85 2.21 L3.68 2.7 L11.12 1.83 L-2.73 2.09 L-2.49 1.19 L0.04 0.01" stroke="none" stroke-width="0" fill="#1555a1" fill-rule="evenodd"></path><path d="M0 0 C-0.75 0.28, -3.9 1.26, -4.52 1.69 C-5.14 2.11, -5.07 2.37, -3.7 2.54 C-2.34 2.71, 1.21 2.82, 3.68 2.7 C6.15 2.58, 11.06 1.88, 11.12 1.83 C11.17 1.78, 5.81 2.3, 4.02 2.4 C2.23 2.5, 1.49 2.5, 0.37 2.44 C-0.76 2.39, -2.26 2.3, -2.73 2.09 C-3.21 1.88, -2.95 1.54, -2.49 1.19 C-2.03 0.84, -0.38 0.2, 0.04 0.01 M0 0 C-0.75 0.28, -3.9 1.26, -4.52 1.69 C-5.14 2.11, -5.07 2.37, -3.7 2.54 C-2.34 2.71, 1.21 2.82, 3.68 2.7 C6.15 2.58, 11.06 1.88, 11.12 1.83 C11.17 1.78, 5.81 2.3, 4.02 2.4 C2.23 2.5, 1.49 2.5, 0.37 2.44 C-0.76 2.39, -2.26 2.3, -2.73 2.09 C-3.21 1.88, -2.95 1.54, -2.49 1.19 C-2.03 0.84, -0.38 0.2, 0.04 0.01" stroke="#1555a1" stroke-width="1" fill="none"></path></g></g><mask></mask><g stroke-linecap="round"><g transform="translate(56.86444247411566 285.7518989408738) rotate(0 1.841230332252735 2.9225031741322027)" fill-rule="evenodd"><path d="M0 0 L2.2 0.28 L3 1.28 L1.28 4.47 L-0.91 6.1 L3.48 3.69 L4.56 1.74 L4.17 0.29 L2.79 -0.26 L-0.01 -0.01" stroke="none" stroke-width="0" fill="#1555a1" fill-rule="evenodd"></path><path d="M0 0 C0.37 0.05, 1.7 0.06, 2.2 0.28 C2.7 0.49, 2.91 0.9, 3 1.28 C3.1 1.66, 3.06 2.04, 2.78 2.57 C2.49 3.1, 1.9 3.88, 1.28 4.47 C0.67 5.06, -0.96 6, -0.91 6.1 C-0.85 6.2, 0.88 5.47, 1.62 5.07 C2.35 4.66, 2.99 4.24, 3.48 3.69 C3.97 3.13, 4.44 2.3, 4.56 1.74 C4.67 1.17, 4.47 0.62, 4.17 0.29 C3.88 -0.04, 3.49 -0.21, 2.79 -0.26 C2.09 -0.31, 0.45 -0.05, -0.01 -0.01 M0 0 C0.37 0.05, 1.7 0.06, 2.2 0.28 C2.7 0.49, 2.91 0.9, 3 1.28 C3.1 1.66, 3.06 2.04, 2.78 2.57 C2.49 3.1, 1.9 3.88, 1.28 4.47 C0.67 5.06, -0.96 6, -0.91 6.1 C-0.85 6.2, 0.88 5.47, 1.62 5.07 C2.35 4.66, 2.99 4.24, 3.48 3.69 C3.97 3.13, 4.44 2.3, 4.56 1.74 C4.67 1.17, 4.47 0.62, 4.17 0.29 C3.88 -0.04, 3.49 -0.21, 2.79 -0.26 C2.09 -0.31, 0.45 -0.05, -0.01 -0.01" stroke="#1555a1" stroke-width="1" fill="none"></path></g></g><mask></mask><g stroke-linecap="round"><g transform="translate(42.56963403010707 289.5584946439914) rotate(0 5.199847856015623 1.2595334871745933)" fill-rule="evenodd"><path d="M0 0 L-1.13 1.15 L0.1 2.22 L5.74 2.49 L11.18 1.64 L10.67 0.9 L0.27 1.13 L0 0.14" stroke="none" stroke-width="0" fill="#1555a1" fill-rule="evenodd"></path><path d="M0 0 C-0.19 0.19, -1.14 0.78, -1.13 1.15 C-1.11 1.52, -1.04 2, 0.1 2.22 C1.25 2.44, 3.89 2.58, 5.74 2.49 C7.58 2.39, 10.36 1.9, 11.18 1.64 C12.01 1.37, 11.15 0.99, 10.67 0.9 C10.19 0.8, 9.15 1, 8.3 1.07 C7.45 1.13, 6.55 1.21, 5.57 1.27 C4.58 1.33, 3.24 1.43, 2.36 1.4 C1.48 1.38, 0.66 1.34, 0.27 1.13 C-0.12 0.92, 0.05 0.31, 0 0.14 M0 0 C-0.19 0.19, -1.14 0.78, -1.13 1.15 C-1.11 1.52, -1.04 2, 0.1 2.22 C1.25 2.44, 3.89 2.58, 5.74 2.49 C7.58 2.39, 10.36 1.9, 11.18 1.64 C12.01 1.37, 11.15 0.99, 10.67 0.9 C10.19 0.8, 9.15 1, 8.3 1.07 C7.45 1.13, 6.55 1.21, 5.57 1.27 C4.58 1.33, 3.24 1.43, 2.36 1.4 C1.48 1.38, 0.66 1.34, 0.27 1.13 C-0.12 0.92, 0.05 0.31, 0 0.14" stroke="#1555a1" stroke-width="1" fill="none"></path></g></g><mask></mask><g stroke-linecap="round"><g transform="translate(43.44407811984695 293.09104700187385) rotate(0 4.602993224405935 1.4357469556922524)" fill-rule="evenodd"><path d="M0 0 L-1.01 0.91 L1.22 2.61 L5.22 2.84 L9.78 2.05 L9.99 1.29 L1.52 1.34 L0.15 0.86 L0 0" stroke="none" stroke-width="0" fill="#1555a1" fill-rule="evenodd"></path><path d="M0 0 C-0.17 0.15, -0.94 0.6, -1.01 0.91 C-1.09 1.23, -0.82 1.61, -0.45 1.9 C-0.08 2.18, 0.27 2.46, 1.22 2.61 C2.16 2.77, 3.79 2.94, 5.22 2.84 C6.65 2.75, 8.98 2.31, 9.78 2.05 C10.57 1.79, 10.12 1.45, 9.99 1.29 C9.86 1.13, 9.36 1.11, 9 1.09 C8.63 1.07, 8.28 1.11, 7.8 1.15 C7.33 1.19, 6.81 1.26, 6.14 1.32 C5.47 1.39, 4.55 1.53, 3.78 1.54 C3.01 1.54, 2.13 1.46, 1.52 1.34 C0.92 1.23, 0.4 1.08, 0.15 0.86 C-0.1 0.63, 0.02 0.14, 0 0 M0 0 C-0.17 0.15, -0.94 0.6, -1.01 0.91 C-1.09 1.23, -0.82 1.61, -0.45 1.9 C-0.08 2.18, 0.27 2.46, 1.22 2.61 C2.16 2.77, 3.79 2.94, 5.22 2.84 C6.65 2.75, 8.98 2.31, 9.78 2.05 C10.57 1.79, 10.12 1.45, 9.99 1.29 C9.86 1.13, 9.36 1.11, 9 1.09 C8.63 1.07, 8.28 1.11, 7.8 1.15 C7.33 1.19, 6.81 1.26, 6.14 1.32 C5.47 1.39, 4.55 1.53, 3.78 1.54 C3.01 1.54, 2.13 1.46, 1.52 1.34 C0.92 1.23, 0.4 1.08, 0.15 0.86 C-0.1 0.63, 0.02 0.14, 0 0" stroke="#1555a1" stroke-width="1" fill="none"></path></g></g><mask></mask><g stroke-linecap="round"><g transform="translate(59.26480007047542 296.3424528454197) rotate(0 -11.776423927237488 1.2064269526583757)" fill-rule="evenodd"><path d="M0 0 L-3.28 2.05 L-10.46 2.73 L-19.72 2.56 L-22.5 2.28 L-23.55 1.43 L-18.97 -0.34 L-21.97 0.98 L-16.33 1.86 L-7.31 1.9 L-3.04 1.43 L0 0" stroke="none" stroke-width="0" fill="#1555a1" fill-rule="evenodd"></path><path d="M0 0 C-0.14 0.15, -0.57 0.68, -0.82 0.92 C-1.08 1.15, -1.14 1.24, -1.55 1.43 C-1.96 1.62, -2.58 1.89, -3.28 2.05 C-3.97 2.22, -4.53 2.3, -5.73 2.42 C-6.93 2.53, -8.88 2.67, -10.46 2.73 C-12.03 2.78, -13.63 2.77, -15.18 2.74 C-16.72 2.71, -18.5 2.64, -19.72 2.56 C-20.94 2.48, -21.86 2.46, -22.5 2.28 C-23.14 2.09, -23.53 1.72, -23.55 1.43 C-23.58 1.15, -23.09 0.83, -22.65 0.57 C-22.22 0.32, -21.55 0.08, -20.94 -0.08 C-20.33 -0.23, -18.98 -0.39, -18.97 -0.34 C-18.96 -0.3, -20.41 -0.03, -20.91 0.19 C-21.41 0.41, -21.89 0.78, -21.97 0.98 C-22.06 1.18, -21.8 1.3, -21.42 1.4 C-21.05 1.51, -20.57 1.53, -19.73 1.6 C-18.88 1.68, -17.39 1.79, -16.33 1.86 C-15.27 1.92, -14.86 1.97, -13.36 1.97 C-11.85 1.98, -9.02 1.99, -7.31 1.9 C-5.59 1.81, -4.07 1.61, -3.04 1.43 C-2.01 1.25, -1.62 1.04, -1.12 0.8 C-0.61 0.57, -0.19 0.13, 0 0 M0 0 C-0.14 0.15, -0.57 0.68, -0.82 0.92 C-1.08 1.15, -1.14 1.24, -1.55 1.43 C-1.96 1.62, -2.58 1.89, -3.28 2.05 C-3.97 2.22, -4.53 2.3, -5.73 2.42 C-6.93 2.53, -8.88 2.67, -10.46 2.73 C-12.03 2.78, -13.63 2.77, -15.18 2.74 C-16.72 2.71, -18.5 2.64, -19.72 2.56 C-20.94 2.48, -21.86 2.46, -22.5 2.28 C-23.14 2.09, -23.53 1.72, -23.55 1.43 C-23.58 1.15, -23.09 0.83, -22.65 0.57 C-22.22 0.32, -21.55 0.08, -20.94 -0.08 C-20.33 -0.23, -18.98 -0.39, -18.97 -0.34 C-18.96 -0.3, -20.41 -0.03, -20.91 0.19 C-21.41 0.41, -21.89 0.78, -21.97 0.98 C-22.06 1.18, -21.8 1.3, -21.42 1.4 C-21.05 1.51, -20.57 1.53, -19.73 1.6 C-18.88 1.68, -17.39 1.79, -16.33 1.86 C-15.27 1.92, -14.86 1.97, -13.36 1.97 C-11.85 1.98, -9.02 1.99, -7.31 1.9 C-5.59 1.81, -4.07 1.61, -3.04 1.43 C-2.01 1.25, -1.62 1.04, -1.12 0.8 C-0.61 0.57, -0.19 0.13, 0 0" stroke="#1555a1" stroke-width="1" fill="none"></path></g></g><mask></mask><g stroke-linecap="round"><g transform="translate(40.85188681158809 300.2845565594259) rotate(0 10.139218192441035 -0.5380943132497009)" fill-rule="evenodd"><path d="M0 0 L4.32 0.74 L13.97 0.63 L18.18 -0.24 L20.3 -1.88 L15.96 -0.28 L-0.02 0.03" stroke="none" stroke-width="0" fill="#1555a1" fill-rule="evenodd"></path><path d="M0 0 C0.3 0.09, 1.06 0.39, 1.78 0.51 C2.5 0.64, 2.98 0.69, 4.32 0.74 C5.66 0.79, 8.2 0.83, 9.81 0.81 C11.41 0.79, 12.86 0.7, 13.97 0.63 C15.08 0.55, 15.75 0.5, 16.45 0.36 C17.15 0.22, 17.53 0.14, 18.18 -0.24 C18.82 -0.61, 20.25 -1.78, 20.3 -1.88 C20.35 -1.99, 19.22 -1.16, 18.49 -0.89 C17.77 -0.62, 16.95 -0.43, 15.96 -0.28 C14.97 -0.12, 13.76 -0.03, 12.57 0.04 C11.38 0.11, 9.94 0.12, 8.84 0.13 C7.73 0.15, 6.87 0.16, 5.94 0.14 C5 0.13, 4.21 0.08, 3.22 0.06 C2.22 0.05, 0.52 0.03, -0.02 0.03 M0 0 C0.3 0.09, 1.06 0.39, 1.78 0.51 C2.5 0.64, 2.98 0.69, 4.32 0.74 C5.66 0.79, 8.2 0.83, 9.81 0.81 C11.41 0.79, 12.86 0.7, 13.97 0.63 C15.08 0.55, 15.75 0.5, 16.45 0.36 C17.15 0.22, 17.53 0.14, 18.18 -0.24 C18.82 -0.61, 20.25 -1.78, 20.3 -1.88 C20.35 -1.99, 19.22 -1.16, 18.49 -0.89 C17.77 -0.62, 16.95 -0.43, 15.96 -0.28 C14.97 -0.12, 13.76 -0.03, 12.57 0.04 C11.38 0.11, 9.94 0.12, 8.84 0.13 C7.73 0.15, 6.87 0.16, 5.94 0.14 C5 0.13, 4.21 0.08, 3.22 0.06 C2.22 0.05, 0.52 0.03, -0.02 0.03" stroke="#1555a1" stroke-width="1" fill="none"></path></g></g><mask></mask><g stroke-linecap="round"><g transform="translate(52.11921854681498 266.2579494657422) rotate(0 -3.5563936932072977 9.314740515235059)" fill-rule="evenodd"><path d="M0 0 L0.78 1.82 L0.21 5.03 L-6.03 12.48 L-6.09 14.22 L-3.92 18.63 L-7.05 15.15 L-8 12.22 L-6.29 9.42 L-0.31 3.86 L-0.13 -0.05" stroke="none" stroke-width="0" fill="#fc090f" fill-rule="evenodd"></path><path d="M0 0 C0.13 0.3, 0.64 1.28, 0.78 1.82 C0.92 2.37, 0.93 2.75, 0.83 3.29 C0.74 3.82, 0.55 4.47, 0.21 5.03 C-0.13 5.6, -0.71 6.14, -1.2 6.66 C-1.7 7.18, -2.09 7.5, -2.74 8.17 C-3.39 8.83, -4.54 9.93, -5.09 10.64 C-5.64 11.36, -5.86 11.88, -6.03 12.48 C-6.2 13.07, -6.2 13.64, -6.09 14.22 C-5.99 14.81, -5.7 15.38, -5.38 16 C-5.06 16.62, -4.42 17.52, -4.17 17.96 C-3.93 18.4, -3.66 18.85, -3.92 18.63 C-4.18 18.4, -5.2 17.22, -5.72 16.64 C-6.24 16.06, -6.7 15.65, -7.05 15.15 C-7.4 14.66, -7.64 14.15, -7.8 13.66 C-7.96 13.17, -8.03 12.65, -8 12.22 C-7.97 11.79, -7.92 11.54, -7.63 11.08 C-7.35 10.61, -6.95 10.05, -6.29 9.42 C-5.62 8.79, -4.44 7.95, -3.64 7.31 C-2.85 6.67, -2.07 6.17, -1.51 5.59 C-0.95 5.02, -0.58 4.45, -0.31 3.86 C-0.03 3.27, 0.13 2.7, 0.16 2.05 C0.19 1.4, -0.08 0.3, -0.13 -0.05 M0 0 C0.13 0.3, 0.64 1.28, 0.78 1.82 C0.92 2.37, 0.93 2.75, 0.83 3.29 C0.74 3.82, 0.55 4.47, 0.21 5.03 C-0.13 5.6, -0.71 6.14, -1.2 6.66 C-1.7 7.18, -2.09 7.5, -2.74 8.17 C-3.39 8.83, -4.54 9.93, -5.09 10.64 C-5.64 11.36, -5.86 11.88, -6.03 12.48 C-6.2 13.07, -6.2 13.64, -6.09 14.22 C-5.99 14.81, -5.7 15.38, -5.38 16 C-5.06 16.62, -4.42 17.52, -4.17 17.96 C-3.93 18.4, -3.66 18.85, -3.92 18.63 C-4.18 18.4, -5.2 17.22, -5.72 16.64 C-6.24 16.06, -6.7 15.65, -7.05 15.15 C-7.4 14.66, -7.64 14.15, -7.8 13.66 C-7.96 13.17, -8.03 12.65, -8 12.22 C-7.97 11.79, -7.92 11.54, -7.63 11.08 C-7.35 10.61, -6.95 10.05, -6.29 9.42 C-5.62 8.79, -4.44 7.95, -3.64 7.31 C-2.85 6.67, -2.07 6.17, -1.51 5.59 C-0.95 5.02, -0.58 4.45, -0.31 3.86 C-0.03 3.27, 0.13 2.7, 0.16 2.05 C0.19 1.4, -0.08 0.3, -0.13 -0.05" stroke="#fc090f" stroke-width="1" fill="none"></path></g></g><mask></mask><g stroke-linecap="round"><g transform="translate(56.058956579108894 273.47327352947343) rotate(0 -3.6116541057125744 6.4390947033127475)" fill-rule="evenodd"><path d="M0 0 L-5.05 2.32 L-7.13 4.94 L-7.1 7.2 L-5.25 10.82 L-6.44 12.68 L-3.62 9.86 L-5.33 6.8 L-5.43 4.91 L-0.02 0.02" stroke="none" stroke-width="0" fill="#fc090f" fill-rule="evenodd"></path><path d="M0 0 C-0.39 0.14, -1.76 0.6, -2.34 0.83 C-2.93 1.07, -3.04 1.15, -3.49 1.4 C-3.94 1.65, -4.6 1.97, -5.05 2.32 C-5.51 2.66, -5.87 3.03, -6.21 3.47 C-6.56 3.9, -6.98 4.32, -7.13 4.94 C-7.28 5.56, -7.23 6.56, -7.1 7.2 C-6.98 7.84, -6.63 8.33, -6.36 8.76 C-6.09 9.19, -5.66 9.43, -5.48 9.78 C-5.29 10.12, -5.08 10.33, -5.25 10.82 C-5.41 11.3, -6.25 12.37, -6.44 12.68 C-6.63 12.99, -6.67 12.89, -6.39 12.7 C-6.1 12.5, -5.2 11.99, -4.74 11.52 C-4.28 11.05, -3.76 10.4, -3.62 9.86 C-3.49 9.33, -3.63 8.83, -3.92 8.32 C-4.2 7.8, -5.07 7.37, -5.33 6.8 C-5.58 6.23, -5.55 5.44, -5.43 4.91 C-5.31 4.39, -5.07 4.15, -4.6 3.64 C-4.13 3.13, -3.35 2.46, -2.59 1.85 C-1.83 1.25, -0.45 0.32, -0.02 0.02 M0 0 C-0.39 0.14, -1.76 0.6, -2.34 0.83 C-2.93 1.07, -3.04 1.15, -3.49 1.4 C-3.94 1.65, -4.6 1.97, -5.05 2.32 C-5.51 2.66, -5.87 3.03, -6.21 3.47 C-6.56 3.9, -6.98 4.32, -7.13 4.94 C-7.28 5.56, -7.23 6.56, -7.1 7.2 C-6.98 7.84, -6.63 8.33, -6.36 8.76 C-6.09 9.19, -5.66 9.43, -5.48 9.78 C-5.29 10.12, -5.08 10.33, -5.25 10.82 C-5.41 11.3, -6.25 12.37, -6.44 12.68 C-6.63 12.99, -6.67 12.89, -6.39 12.7 C-6.1 12.5, -5.2 11.99, -4.74 11.52 C-4.28 11.05, -3.76 10.4, -3.62 9.86 C-3.49 9.33, -3.63 8.83, -3.92 8.32 C-4.2 7.8, -5.07 7.37, -5.33 6.8 C-5.58 6.23, -5.55 5.44, -5.43 4.91 C-5.31 4.39, -5.07 4.15, -4.6 3.64 C-4.13 3.13, -3.35 2.46, -2.59 1.85 C-1.83 1.25, -0.45 0.32, -0.02 0.02" stroke="#fc090f" stroke-width="1" fill="none"></path></g></g><mask></mask><g transform="translate(127.99715584644218 315.24459327171786) rotate(0 16.5 10.5)"><text x="0" y="15" font-family="Virgil, Segoe UI Emoji" font-size="16.31232669562789px" fill="#000" text-anchor="start" style="white-space: pre;" direction="ltr">APK</text></g><g stroke-linecap="round" transform="translate(109.36798285527402 212.7607260234957) rotate(0 35.82931234344619 48.82815729044685)"><path d="M-0.37 0.44 L71.92 -2 L73.13 97.43 L-1.23 99.04" stroke="none" stroke-width="0" fill="#f48284"></path><path d="M-0.68 0.02 C26.41 -0.97, 48.36 1.27, 73.26 -1.67 M0.75 -0.63 C23.55 -0.27, 49.76 -0.45, 71.92 -0.38 M70.81 -1.15 C72.85 35.97, 72.38 67.64, 71.21 96.79 M72.15 0.32 C71.86 32.93, 72.45 65.78, 71.01 98.55 M71.58 95.71 C46.49 97.71, 23.09 99.7, -0.44 96.93 M71.3 98.12 C49.7 96.64, 26.39 96.78, 0.71 97.59 M-1.89 95.67 C0.31 57.92, 2.4 23.02, -0.69 0.34 M-0.18 98.44 C0.4 67.66, -0.24 34.88, -0.15 0.35" stroke="#000000" stroke-width="4" fill="none"></path></g><g stroke-linecap="round" transform="translate(141.44727816022032 224.53398200251087) rotate(0 23.789871764893235 12.234245021720909)"><path d="M0.44 0.26 L45.58 1.47 L47.35 23.23 L1.38 23.58" stroke="none" stroke-width="0" fill="#fff"></path><path d="M0.02 1.3 C9.52 -1.7, 22.64 1.77, 45.91 0.82 M-0.63 -0.87 C13.46 0.55, 27.2 -0.1, 47.2 0.5 M46.43 0.79 C49.39 8.67, 46.89 16.26, 46.71 25.16 M47.9 0.04 C48.03 8.38, 48.23 14.85, 48.48 24.92 M45.63 24.07 C31.49 25.42, 17.51 24.01, -0.72 24.82 M48.05 25.28 C36 24.57, 25.2 25.01, -0.07 25.39 M-1.99 23.85 C-1.36 20.94, 2.06 13.77, 0.34 0.35 M0.79 24.3 C1.02 17.75, -0.77 12.48, 0.35 -0.19" stroke="#000000" stroke-width="4" fill="none"></path></g><g transform="translate(149.02476932022478 228.1405982146726) rotate(0 16.5 10.5)"><text x="0" y="15" font-family="Virgil, Segoe UI Emoji" font-size="16.31232669562789px" fill="#000000" text-anchor="start" style="white-space: pre;" direction="ltr">APK</text></g><g stroke-linecap="round"><g transform="translate(126.28332115767034 265.3706168387154) rotate(0 3.0962394544895346 2.9559962816903464)"><path d="M0 0 C1.65 1.57, 3.29 3.14, 6.19 5.91 M0 0 C2.32 2.22, 4.65 4.44, 6.19 5.91" stroke="#000" stroke-width="4" fill="none"></path></g></g><mask></mask><g stroke-linecap="round"><g transform="translate(162.91079506949222 272.7957774707822) rotate(0 2.8448129255066874 -3.5315649969446667)"><path d="M0 0 C1.71 -2.13, 3.43 -4.25, 5.69 -7.06 M0 0 C1.35 -1.67, 2.69 -3.35, 5.69 -7.06" stroke="#000" stroke-width="4" fill="none"></path></g></g><mask></mask><g stroke-linecap="round"><g transform="translate(123.9266647456675 293.6095354840621) rotate(0 22.02692035984495 -13.163813772874988)" fill-rule="evenodd"><path d="M0 0 L42.92 0.03 L45.6 -2.55 L45.79 -5.33 L44.36 -12.84 L40.93 -19.02 L34.35 -24.21 L28.46 -26.05 L21.16 -26.42 L14.77 -25.57 L7.37 -22.23 L3.21 -18.07 L0.31 -12.79 L-1.49 -7.26 L-1.39 -0.03" stroke="none" stroke-width="0" fill="#aed796" fill-rule="evenodd"></path><path d="M0 0 C6.18 0.01, 29.68 0.19, 37.07 0.09 C44.45 -0.02, 42.86 0.28, 44.32 -0.63 C45.77 -1.53, 45.78 -3.29, 45.79 -5.33 C45.8 -7.36, 45.17 -10.55, 44.36 -12.84 C43.55 -15.12, 42.6 -17.13, 40.93 -19.02 C39.26 -20.92, 36.43 -23.04, 34.35 -24.21 C32.27 -25.38, 30.66 -25.68, 28.46 -26.05 C26.26 -26.42, 23.44 -26.5, 21.16 -26.42 C18.88 -26.34, 17.07 -26.27, 14.77 -25.57 C12.48 -24.87, 9.3 -23.48, 7.37 -22.23 C5.44 -20.98, 4.38 -19.64, 3.21 -18.07 C2.03 -16.5, 1.09 -14.6, 0.31 -12.79 C-0.47 -10.99, -1.15 -9.05, -1.49 -7.26 C-1.82 -5.47, -1.73 -3.25, -1.71 -2.05 C-1.7 -0.84, -1.45 -0.36, -1.39 -0.03 M0 0 C6.18 0.01, 29.68 0.19, 37.07 0.09 C44.45 -0.02, 42.86 0.28, 44.32 -0.63 C45.77 -1.53, 45.78 -3.29, 45.79 -5.33 C45.8 -7.36, 45.17 -10.55, 44.36 -12.84 C43.55 -15.12, 42.6 -17.13, 40.93 -19.02 C39.26 -20.92, 36.43 -23.04, 34.35 -24.21 C32.27 -25.38, 30.66 -25.68, 28.46 -26.05 C26.26 -26.42, 23.44 -26.5, 21.16 -26.42 C18.88 -26.34, 17.07 -26.27, 14.77 -25.57 C12.48 -24.87, 9.3 -23.48, 7.37 -22.23 C5.44 -20.98, 4.38 -19.64, 3.21 -18.07 C2.03 -16.5, 1.09 -14.6, 0.31 -12.79 C-0.47 -10.99, -1.15 -9.05, -1.49 -7.26 C-1.82 -5.47, -1.73 -3.25, -1.71 -2.05 C-1.7 -0.84, -1.45 -0.36, -1.39 -0.03" stroke="#000" stroke-width="4" fill="none"></path></g></g><mask></mask><g stroke-linecap="round" transform="translate(135.1221971665334 278.4905408251) rotate(0 1.3759232014861027 1.2001408685915465)"><path d="M2.75 1.2 C2.75 1.27, 2.74 1.34, 2.73 1.41 C2.72 1.48, 2.7 1.55, 2.67 1.61 C2.64 1.68, 2.61 1.74, 2.57 1.8 C2.53 1.86, 2.48 1.92, 2.43 1.97 C2.38 2.02, 2.32 2.07, 2.26 2.12 C2.2 2.16, 2.13 2.2, 2.06 2.24 C1.99 2.27, 1.92 2.3, 1.85 2.33 C1.77 2.35, 1.69 2.37, 1.61 2.38 C1.54 2.39, 1.46 2.4, 1.38 2.4 C1.3 2.4, 1.22 2.39, 1.14 2.38 C1.06 2.37, 0.98 2.35, 0.91 2.33 C0.83 2.3, 0.76 2.27, 0.69 2.24 C0.62 2.2, 0.55 2.16, 0.49 2.12 C0.43 2.07, 0.37 2.02, 0.32 1.97 C0.27 1.92, 0.22 1.86, 0.18 1.8 C0.14 1.74, 0.11 1.68, 0.08 1.61 C0.06 1.55, 0.03 1.48, 0.02 1.41 C0.01 1.34, 0 1.27, 0 1.2 C0 1.13, 0.01 1.06, 0.02 0.99 C0.03 0.92, 0.06 0.85, 0.08 0.79 C0.11 0.72, 0.14 0.66, 0.18 0.6 C0.22 0.54, 0.27 0.48, 0.32 0.43 C0.37 0.38, 0.43 0.33, 0.49 0.28 C0.55 0.24, 0.62 0.2, 0.69 0.16 C0.76 0.13, 0.83 0.1, 0.91 0.07 C0.98 0.05, 1.06 0.03, 1.14 0.02 C1.22 0.01, 1.3 0, 1.38 0 C1.46 0, 1.54 0.01, 1.61 0.02 C1.69 0.03, 1.77 0.05, 1.85 0.07 C1.92 0.1, 1.99 0.13, 2.06 0.16 C2.13 0.2, 2.2 0.24, 2.26 0.28 C2.32 0.33, 2.38 0.38, 2.43 0.43 C2.48 0.48, 2.53 0.54, 2.57 0.6 C2.61 0.66, 2.64 0.72, 2.67 0.79 C2.7 0.85, 2.72 0.92, 2.73 0.99 C2.74 1.06, 2.75 1.17, 2.75 1.2 C2.76 1.23, 2.76 1.17, 2.75 1.2" stroke="none" stroke-width="0" fill="#aed796"></path><path d="M2.75 1.2 C2.75 1.27, 2.74 1.34, 2.73 1.41 C2.72 1.48, 2.7 1.55, 2.67 1.61 C2.64 1.68, 2.61 1.74, 2.57 1.8 C2.53 1.86, 2.48 1.92, 2.43 1.97 C2.38 2.02, 2.32 2.07, 2.26 2.12 C2.2 2.16, 2.13 2.2, 2.06 2.24 C1.99 2.27, 1.92 2.3, 1.85 2.33 C1.77 2.35, 1.69 2.37, 1.61 2.38 C1.54 2.39, 1.46 2.4, 1.38 2.4 C1.3 2.4, 1.22 2.39, 1.14 2.38 C1.06 2.37, 0.98 2.35, 0.91 2.33 C0.83 2.3, 0.76 2.27, 0.69 2.24 C0.62 2.2, 0.55 2.16, 0.49 2.12 C0.43 2.07, 0.37 2.02, 0.32 1.97 C0.27 1.92, 0.22 1.86, 0.18 1.8 C0.14 1.74, 0.11 1.68, 0.08 1.61 C0.06 1.55, 0.03 1.48, 0.02 1.41 C0.01 1.34, 0 1.27, 0 1.2 C0 1.13, 0.01 1.06, 0.02 0.99 C0.03 0.92, 0.06 0.85, 0.08 0.79 C0.11 0.72, 0.14 0.66, 0.18 0.6 C0.22 0.54, 0.27 0.48, 0.32 0.43 C0.37 0.38, 0.43 0.33, 0.49 0.28 C0.55 0.24, 0.62 0.2, 0.69 0.16 C0.76 0.13, 0.83 0.1, 0.91 0.07 C0.98 0.05, 1.06 0.03, 1.14 0.02 C1.22 0.01, 1.3 0, 1.38 0 C1.46 0, 1.54 0.01, 1.61 0.02 C1.69 0.03, 1.77 0.05, 1.85 0.07 C1.92 0.1, 1.99 0.13, 2.06 0.16 C2.13 0.2, 2.2 0.24, 2.26 0.28 C2.32 0.33, 2.38 0.38, 2.43 0.43 C2.48 0.48, 2.53 0.54, 2.57 0.6 C2.61 0.66, 2.64 0.72, 2.67 0.79 C2.7 0.85, 2.72 0.92, 2.73 0.99 C2.74 1.06, 2.75 1.17, 2.75 1.2 C2.76 1.23, 2.76 1.17, 2.75 1.2" stroke="#000" stroke-width="4" fill="none"></path></g><g stroke-linecap="round" transform="translate(154.31686227760042 278.67438864450435) rotate(0 1.3759232014861027 1.2001408685915465)"><path d="M2.75 1.2 C2.75 1.27, 2.74 1.34, 2.73 1.41 C2.72 1.48, 2.7 1.55, 2.67 1.61 C2.64 1.68, 2.61 1.74, 2.57 1.8 C2.53 1.86, 2.48 1.92, 2.43 1.97 C2.38 2.02, 2.32 2.07, 2.26 2.12 C2.2 2.16, 2.13 2.2, 2.06 2.24 C1.99 2.27, 1.92 2.3, 1.85 2.33 C1.77 2.35, 1.69 2.37, 1.61 2.38 C1.54 2.39, 1.46 2.4, 1.38 2.4 C1.3 2.4, 1.22 2.39, 1.14 2.38 C1.06 2.37, 0.98 2.35, 0.91 2.33 C0.83 2.3, 0.76 2.27, 0.69 2.24 C0.62 2.2, 0.55 2.16, 0.49 2.12 C0.43 2.07, 0.37 2.02, 0.32 1.97 C0.27 1.92, 0.22 1.86, 0.18 1.8 C0.14 1.74, 0.11 1.68, 0.08 1.61 C0.06 1.55, 0.03 1.48, 0.02 1.41 C0.01 1.34, 0 1.27, 0 1.2 C0 1.13, 0.01 1.06, 0.02 0.99 C0.03 0.92, 0.06 0.85, 0.08 0.79 C0.11 0.72, 0.14 0.66, 0.18 0.6 C0.22 0.54, 0.27 0.48, 0.32 0.43 C0.37 0.38, 0.43 0.33, 0.49 0.28 C0.55 0.24, 0.62 0.2, 0.69 0.16 C0.76 0.13, 0.83 0.1, 0.91 0.07 C0.98 0.05, 1.06 0.03, 1.14 0.02 C1.22 0.01, 1.3 0, 1.38 0 C1.46 0, 1.54 0.01, 1.61 0.02 C1.69 0.03, 1.77 0.05, 1.85 0.07 C1.92 0.1, 1.99 0.13, 2.06 0.16 C2.13 0.2, 2.2 0.24, 2.26 0.28 C2.32 0.33, 2.38 0.38, 2.43 0.43 C2.48 0.48, 2.53 0.54, 2.57 0.6 C2.61 0.66, 2.64 0.72, 2.67 0.79 C2.7 0.85, 2.72 0.92, 2.73 0.99 C2.74 1.06, 2.75 1.17, 2.75 1.2 C2.76 1.23, 2.76 1.17, 2.75 1.2" stroke="none" stroke-width="0" fill="#aed796"></path><path d="M2.75 1.2 C2.75 1.27, 2.74 1.34, 2.73 1.41 C2.72 1.48, 2.7 1.55, 2.67 1.61 C2.64 1.68, 2.61 1.74, 2.57 1.8 C2.53 1.86, 2.48 1.92, 2.43 1.97 C2.38 2.02, 2.32 2.07, 2.26 2.12 C2.2 2.16, 2.13 2.2, 2.06 2.24 C1.99 2.27, 1.92 2.3, 1.85 2.33 C1.77 2.35, 1.69 2.37, 1.61 2.38 C1.54 2.39, 1.46 2.4, 1.38 2.4 C1.3 2.4, 1.22 2.39, 1.14 2.38 C1.06 2.37, 0.98 2.35, 0.91 2.33 C0.83 2.3, 0.76 2.27, 0.69 2.24 C0.62 2.2, 0.55 2.16, 0.49 2.12 C0.43 2.07, 0.37 2.02, 0.32 1.97 C0.27 1.92, 0.22 1.86, 0.18 1.8 C0.14 1.74, 0.11 1.68, 0.08 1.61 C0.06 1.55, 0.03 1.48, 0.02 1.41 C0.01 1.34, 0 1.27, 0 1.2 C0 1.13, 0.01 1.06, 0.02 0.99 C0.03 0.92, 0.06 0.85, 0.08 0.79 C0.11 0.72, 0.14 0.66, 0.18 0.6 C0.22 0.54, 0.27 0.48, 0.32 0.43 C0.37 0.38, 0.43 0.33, 0.49 0.28 C0.55 0.24, 0.62 0.2, 0.69 0.16 C0.76 0.13, 0.83 0.1, 0.91 0.07 C0.98 0.05, 1.06 0.03, 1.14 0.02 C1.22 0.01, 1.3 0, 1.38 0 C1.46 0, 1.54 0.01, 1.61 0.02 C1.69 0.03, 1.77 0.05, 1.85 0.07 C1.92 0.1, 1.99 0.13, 2.06 0.16 C2.13 0.2, 2.2 0.24, 2.26 0.28 C2.32 0.33, 2.38 0.38, 2.43 0.43 C2.48 0.48, 2.53 0.54, 2.57 0.6 C2.61 0.66, 2.64 0.72, 2.67 0.79 C2.7 0.85, 2.72 0.92, 2.73 0.99 C2.74 1.06, 2.75 1.17, 2.75 1.2 C2.76 1.23, 2.76 1.17, 2.75 1.2" stroke="#000" stroke-width="4" fill="none"></path></g><g stroke-linecap="round"><g transform="translate(316.42385114227477 254.4478638323742) rotate(0 365.14797004465424 -0.026863382301399952)"><path d="M0.75 1.14 C122.44 1, 607.99 -0.43, 729.55 -1.19" stroke="#c92a2a" stroke-width="2.5" fill="none" stroke-dasharray="8 10"></path></g><g transform="translate(316.42385114227477 254.4478638323742) rotate(0 365.14797004465424 -0.026863382301399952)"><path d="M730.2 -2.34 L715.6 6.17 L717.11 -6.68 L730.44 -2.16" stroke="none" stroke-width="0" fill="#c92a2a" fill-rule="evenodd"></path><path d="M730.97 -0.37 C727.44 1.97, 721.31 2.26, 714.49 5.91 M714.8 6.34 C715.03 -0.63, 715.09 -6.05, 714.82 -6.31 M716.07 -7.94 C719.68 -5.72, 723.54 -3.66, 729.66 -2.62 M729.55 -1.19 C729.55 -1.19, 729.55 -1.19, 729.55 -1.19" stroke="#c92a2a" stroke-width="2.5" fill="none"></path></g></g><mask></mask><g transform="translate(615.6460733644969 204.8923082768186) rotate(0 40.5 18.5)"><text x="0" y="26" font-family="Virgil, Segoe UI Emoji" font-size="28px" fill="#c92a2a" text-anchor="start" style="white-space: pre;" direction="ltr">HTTP</text></g><g stroke-linecap="round"><g transform="translate(320.1647699865093 285.5858383257867) rotate(0 364.2866294026789 -1.4009921769715277)"><path d="M-0.24 -0.53 C121.4 -0.72, 607.16 -2.03, 728.81 -2.28" stroke="#c92a2a" stroke-width="2.5" fill="none" stroke-dasharray="8 10"></path></g><g transform="translate(320.1647699865093 285.5858383257867) rotate(0 364.2866294026789 -1.4009921769715277)"><path d="M-0.21 0.79 L12.48 -6.43 L12.89 5.98 L-2.04 -1.4" stroke="none" stroke-width="0" fill="#c92a2a" fill-rule="evenodd"></path><path d="M-0.9 -0.62 C2.65 -0.89, 5.93 -3.9, 12.08 -5.9 M13.43 -6.67 C12.76 -3.13, 14.09 -1.39, 14.45 5.19 M12.39 6.02 C6.85 3.7, 3.5 0.23, 1.18 -0.15 M-0.24 -0.53 C-0.24 -0.53, -0.24 -0.53, -0.24 -0.53" stroke="#c92a2a" stroke-width="2.5" fill="none"></path></g></g><mask></mask><g transform="translate(318.0905178089415 10) rotate(0 44 53.5)"><text x="0" y="24.666666666666664" font-family="Virgil, Segoe UI Emoji" font-size="27.913831424175072px" fill="#000000" text-anchor="start" style="white-space: pre;" direction="ltr">CLASS</text><text x="0" y="60.33333333333333" font-family="Virgil, Segoe UI Emoji" font-size="27.913831424175072px" fill="#000000" text-anchor="start" style="white-space: pre;" direction="ltr"></text><text x="0" y="96" font-family="Virgil, Segoe UI Emoji" font-size="27.913831424175072px" fill="#000000" text-anchor="start" style="white-space: pre;" direction="ltr">Event</text></g><g transform="translate(445.58275769800093 10.00000000000017) rotate(0 134.5 53.5)"><text x="0" y="24.666666666666664" font-family="Virgil, Segoe UI Emoji" font-size="27.913831424175072px" fill="#e67700" text-anchor="start" style="white-space: pre;" direction="ltr">ATTRIBUTES</text><text x="0" y="60.33333333333333" font-family="Virgil, Segoe UI Emoji" font-size="27.913831424175072px" fill="#e67700" text-anchor="start" style="white-space: pre;" direction="ltr"></text><text x="0" y="96" font-family="Virgil, Segoe UI Emoji" font-size="27.913831424175072px" fill="#e67700" text-anchor="start" style="white-space: pre;" direction="ltr">id, desc, start, end</text></g><g transform="translate(757.5395024406921 10.892308276818767) rotate(0 161.5 89.5)"><text x="0" y="24.799999999999997" font-family="Virgil, Segoe UI Emoji" font-size="27.913831424175076px" fill="#5f3dc4" text-anchor="start" style="white-space: pre;" direction="ltr">METHODS</text><text x="0" y="60.599999999999994" font-family="Virgil, Segoe UI Emoji" font-size="27.913831424175076px" fill="#5f3dc4" text-anchor="start" style="white-space: pre;" direction="ltr"></text><text x="0" y="96.39999999999999" font-family="Virgil, Segoe UI Emoji" font-size="27.913831424175076px" fill="#5f3dc4" text-anchor="start" style="white-space: pre;" direction="ltr">Get, Put, Delete, Post</text><text x="0" y="132.2" font-family="Virgil, Segoe UI Emoji" font-size="27.913831424175076px" fill="#5f3dc4" text-anchor="start" style="white-space: pre;" direction="ltr"></text><text x="0" y="168" font-family="Virgil, Segoe UI Emoji" font-size="27.913831424175076px" fill="#5f3dc4" text-anchor="start" style="white-space: pre;" direction="ltr"></text></g><g stroke-linecap="round" transform="translate(223.85897442625628 421.836752721263) rotate(0 29.1610305958132 55.27777777777783)"><path d="M0 0 C15.35 0, 30.69 0, 58.32 0 M0 0 C18.42 0, 36.84 0, 58.32 0 M58.32 0 C58.32 41.82, 58.32 83.63, 58.32 110.56 M58.32 0 C58.32 36.41, 58.32 72.83, 58.32 110.56 M58.32 110.56 C38.96 110.56, 19.59 110.56, 0 110.56 M58.32 110.56 C38.46 110.56, 18.59 110.56, 0 110.56 M0 110.56 C0 86.93, 0 63.3, 0 0 M0 110.56 C0 70.98, 0 31.4, 0 0" stroke="#000000" stroke-width="2" fill="none"></path></g><g stroke-linecap="round" transform="translate(226.5406423642171 427.28441777762384) rotate(0 26.420332231545046 48.46819645732694)"><path d="M0 0 L52.84 0 L52.84 96.94 L0 96.94" stroke="none" stroke-width="0" fill="#000000"></path><path d="M0 0 C19.92 0, 39.85 0, 52.84 0 M0 0 C10.97 0, 21.94 0, 52.84 0 M52.84 0 C52.84 38.11, 52.84 76.22, 52.84 96.94 M52.84 0 C52.84 24, 52.84 48.01, 52.84 96.94 M52.84 96.94 C38.75 96.94, 24.66 96.94, 0 96.94 M52.84 96.94 C41.09 96.94, 29.33 96.94, 0 96.94 M0 96.94 C0 71.8, 0 46.66, 0 0 M0 96.94 C0 72.67, 0 48.41, 0 0" stroke="#000000" stroke-width="1" fill="none"></path></g><g stroke-linecap="round" transform="translate(243.40647845202102 526.7844177776238) rotate(0 9.45330112721416 1.6022544283413822)"><path d="M0.8 0 L18.11 0 L18.71 0.2 L18.91 2.4 L18.11 3.2 L0.8 3.2 L0 2.4 L0.2 0.2 L0.8 0" stroke="none" stroke-width="0" fill="#000000"></path><path d="M0.8 0 M0.8 0 C7.6 0, 14.4 0, 18.11 0 M0.8 0 C6.53 0, 12.25 0, 18.11 0 M18.11 0 C18.64 0, 18.91 0.27, 18.91 0.8 M18.11 0 C18.64 0, 18.91 0.27, 18.91 0.8 M18.91 0.8 C18.91 1.37, 18.91 1.93, 18.91 2.4 M18.91 0.8 C18.91 1.13, 18.91 1.46, 18.91 2.4 M18.91 2.4 C18.91 2.94, 18.64 3.2, 18.11 3.2 M18.91 2.4 C18.91 2.94, 18.64 3.2, 18.11 3.2 M18.11 3.2 C11.56 3.2, 5.01 3.2, 0.8 3.2 M18.11 3.2 C14.24 3.2, 10.37 3.2, 0.8 3.2 M0.8 3.2 C0.27 3.2, 0 2.94, 0 2.4 M0.8 3.2 C0.27 3.2, 0 2.94, 0 2.4 M0 2.4 C0 1.91, 0 1.43, 0 0.8 M0 2.4 C0 1.88, 0 1.36, 0 0.8 M0 0.8 C0 0.27, 0.27 0, 0.8 0 M0 0.8 C0 0.27, 0.27 0, 0.8 0" stroke="#000000" stroke-width="1" fill="none"></path></g><g stroke-linecap="round" transform="translate(242.9534908521191 423.97337631363223) rotate(0 9.21296296296299 0.7210144927536248)"><path d="M0.36 0 L18.07 0 L18.43 1.08 L0.36 1.44 L0.36 0" stroke="none" stroke-width="0" fill="#000000"></path><path d="M0.36 0 M0.36 0 C6.8 0, 13.24 0, 18.07 0 M0.36 0 C7.32 0, 14.27 0, 18.07 0 M18.07 0 C18.31 0, 18.43 0.12, 18.43 0.36 M18.07 0 C18.31 0, 18.43 0.12, 18.43 0.36 M18.43 0.36 C18.43 0.59, 18.43 0.83, 18.43 1.08 M18.43 0.36 C18.43 0.61, 18.43 0.87, 18.43 1.08 M18.43 1.08 C18.43 1.32, 18.31 1.44, 18.07 1.44 M18.43 1.08 C18.43 1.32, 18.31 1.44, 18.07 1.44 M18.07 1.44 C11.38 1.44, 4.69 1.44, 0.36 1.44 M18.07 1.44 C11.36 1.44, 4.66 1.44, 0.36 1.44 M0.36 1.44 C0.12 1.44, 0 1.32, 0 1.08 M0.36 1.44 C0.12 1.44, 0 1.32, 0 1.08 M0 1.08 C0 0.83, 0 0.58, 0 0.36 M0 1.08 C0 0.86, 0 0.64, 0 0.36 M0 0.36 C0 0.12, 0.12 0, 0.36 0 M0 0.36 C0 0.12, 0.12 0, 0.36 0" stroke="#000000" stroke-width="1" fill="none"></path></g><g transform="translate(23.94771725558803 514.9453373836999) rotate(0 20 10)"><text x="0" y="14" font-family="Virgil, Segoe UI Emoji" font-size="15.089140210557694px" fill="#000" text-anchor="start" style="white-space: pre;" direction="ltr">Java</text></g><g stroke-linecap="round" transform="translate(10 421.14452057340725) rotate(0 33.14263671184494 45.166757957109326)"><path d="M0.5 1.09 L65.31 -0.1 L65.86 89.59 L1.14 90.31" stroke="none" stroke-width="0" fill="#f5f3f6"></path><path d="M-1.2 -0.7 C19.42 0.4, 38.54 1.35, 64.9 1.34 M-0.08 0.93 C21.65 0.39, 45.87 0.09, 66.36 0.9 M67.59 -1.63 C67.93 30.48, 65.27 60.27, 64.62 90.8 M66.5 0.52 C66.28 22.81, 66.59 44.08, 65.81 91.25 M67.78 92.14 C53.8 91.19, 37.47 91.93, -1.93 89.35 M67.17 91.12 C40.11 89.61, 13.35 91.19, 0.9 89.91 M1.96 92.27 C-2.86 71.3, -1.88 50.9, 0.89 0.2 M-0.08 90.39 C1.28 71.27, 0.85 55, -0.07 -0.48" stroke="#000000" stroke-width="4" fill="none"></path></g><g stroke-linecap="round" transform="translate(30.75374153346229 432.0284820937428) rotate(0 26.470831517818198 11.316855157918269)"><path d="M1.09 -0.98 L52.84 -0.42 L52.2 23.78 L-0.02 21.97" stroke="none" stroke-width="0" fill="#fff"></path><path d="M-0.7 -0.77 C20.99 -1.53, 42.62 -1.07, 54.29 0.78 M0.93 -0.82 C11.9 0.98, 22.71 0.12, 53.84 0.31 M51.31 1.61 C53.31 5.84, 53.2 12.1, 53.41 21.61 M53.46 -0.64 C53.2 8.05, 51.99 16.3, 53.86 21.69 M54.75 23.78 C40.64 21.48, 28.28 21.1, -0.98 24.56 M53.73 22.73 C34.68 22.7, 18.86 24, -0.42 21.87 M1.93 20.66 C1.06 12.63, 0.86 5.5, 0.2 -1.99 M0.05 23.03 C-0.97 18.02, 0.88 13.38, -0.48 0.25" stroke="#000000" stroke-width="4" fill="none"></path></g><g transform="translate(40.77460693120929 434.12641250038666) rotate(0 20 10)"><text x="0" y="14" font-family="Virgil, Segoe UI Emoji" font-size="15.089140210557694px" fill="#000000" text-anchor="start" style="white-space: pre;" direction="ltr">Java</text></g><g stroke-linecap="round"><g transform="translate(37.8630290023666 488.05579186328066) rotate(0 3.111441137985082 1.3761560083369773)" fill-rule="evenodd"><path d="M0 0 L-4.85 2.21 L3.68 2.7 L11.12 1.83 L-2.73 2.09 L-2.49 1.19 L0.04 0.01" stroke="none" stroke-width="0" fill="#1555a1" fill-rule="evenodd"></path><path d="M0 0 C-0.75 0.28, -3.9 1.26, -4.52 1.69 C-5.14 2.11, -5.07 2.37, -3.7 2.54 C-2.34 2.71, 1.21 2.82, 3.68 2.7 C6.15 2.58, 11.06 1.88, 11.12 1.83 C11.17 1.78, 5.81 2.3, 4.02 2.4 C2.23 2.5, 1.49 2.5, 0.37 2.44 C-0.76 2.39, -2.26 2.3, -2.73 2.09 C-3.21 1.88, -2.95 1.54, -2.49 1.19 C-2.03 0.84, -0.38 0.2, 0.04 0.01 M0 0 C-0.75 0.28, -3.9 1.26, -4.52 1.69 C-5.14 2.11, -5.07 2.37, -3.7 2.54 C-2.34 2.71, 1.21 2.82, 3.68 2.7 C6.15 2.58, 11.06 1.88, 11.12 1.83 C11.17 1.78, 5.81 2.3, 4.02 2.4 C2.23 2.5, 1.49 2.5, 0.37 2.44 C-0.76 2.39, -2.26 2.3, -2.73 2.09 C-3.21 1.88, -2.95 1.54, -2.49 1.19 C-2.03 0.84, -0.38 0.2, 0.04 0.01" stroke="#1555a1" stroke-width="1" fill="none"></path></g></g><mask></mask><g stroke-linecap="round"><g transform="translate(50.95496028305706 488.6685656075405) rotate(0 1.841230332252735 2.9225031741322027)" fill-rule="evenodd"><path d="M0 0 L2.2 0.28 L3 1.28 L1.28 4.47 L-0.91 6.1 L3.48 3.69 L4.56 1.74 L4.17 0.29 L2.79 -0.26 L-0.01 -0.01" stroke="none" stroke-width="0" fill="#1555a1" fill-rule="evenodd"></path><path d="M0 0 C0.37 0.05, 1.7 0.06, 2.2 0.28 C2.7 0.49, 2.91 0.9, 3 1.28 C3.1 1.66, 3.06 2.04, 2.78 2.57 C2.49 3.1, 1.9 3.88, 1.28 4.47 C0.67 5.06, -0.96 6, -0.91 6.1 C-0.85 6.2, 0.88 5.47, 1.62 5.07 C2.35 4.66, 2.99 4.24, 3.48 3.69 C3.97 3.13, 4.44 2.3, 4.56 1.74 C4.67 1.17, 4.47 0.62, 4.17 0.29 C3.88 -0.04, 3.49 -0.21, 2.79 -0.26 C2.09 -0.31, 0.45 -0.05, -0.01 -0.01 M0 0 C0.37 0.05, 1.7 0.06, 2.2 0.28 C2.7 0.49, 2.91 0.9, 3 1.28 C3.1 1.66, 3.06 2.04, 2.78 2.57 C2.49 3.1, 1.9 3.88, 1.28 4.47 C0.67 5.06, -0.96 6, -0.91 6.1 C-0.85 6.2, 0.88 5.47, 1.62 5.07 C2.35 4.66, 2.99 4.24, 3.48 3.69 C3.97 3.13, 4.44 2.3, 4.56 1.74 C4.67 1.17, 4.47 0.62, 4.17 0.29 C3.88 -0.04, 3.49 -0.21, 2.79 -0.26 C2.09 -0.31, 0.45 -0.05, -0.01 -0.01" stroke="#1555a1" stroke-width="1" fill="none"></path></g></g><mask></mask><g stroke-linecap="round"><g transform="translate(36.66015183904847 492.4751613106581) rotate(0 5.199847856015623 1.259533487174565)" fill-rule="evenodd"><path d="M0 0 L-1.13 1.15 L0.1 2.22 L5.74 2.49 L11.18 1.64 L10.67 0.9 L0.27 1.13 L0 0.14" stroke="none" stroke-width="0" fill="#1555a1" fill-rule="evenodd"></path><path d="M0 0 C-0.19 0.19, -1.14 0.78, -1.13 1.15 C-1.11 1.52, -1.04 2, 0.1 2.22 C1.25 2.44, 3.89 2.58, 5.74 2.49 C7.58 2.39, 10.36 1.9, 11.18 1.64 C12.01 1.37, 11.15 0.99, 10.67 0.9 C10.19 0.8, 9.15 1, 8.3 1.07 C7.45 1.13, 6.55 1.21, 5.57 1.27 C4.58 1.33, 3.24 1.43, 2.36 1.4 C1.48 1.38, 0.66 1.34, 0.27 1.13 C-0.12 0.92, 0.05 0.31, 0 0.14 M0 0 C-0.19 0.19, -1.14 0.78, -1.13 1.15 C-1.11 1.52, -1.04 2, 0.1 2.22 C1.25 2.44, 3.89 2.58, 5.74 2.49 C7.58 2.39, 10.36 1.9, 11.18 1.64 C12.01 1.37, 11.15 0.99, 10.67 0.9 C10.19 0.8, 9.15 1, 8.3 1.07 C7.45 1.13, 6.55 1.21, 5.57 1.27 C4.58 1.33, 3.24 1.43, 2.36 1.4 C1.48 1.38, 0.66 1.34, 0.27 1.13 C-0.12 0.92, 0.05 0.31, 0 0.14" stroke="#1555a1" stroke-width="1" fill="none"></path></g></g><mask></mask><g stroke-linecap="round"><g transform="translate(37.53459592878835 496.00771366854053) rotate(0 4.602993224405935 1.4357469556922524)" fill-rule="evenodd"><path d="M0 0 L-1.01 0.91 L1.22 2.61 L5.22 2.84 L9.78 2.05 L9.99 1.29 L1.52 1.34 L0.15 0.86 L0 0" stroke="none" stroke-width="0" fill="#1555a1" fill-rule="evenodd"></path><path d="M0 0 C-0.17 0.15, -0.94 0.6, -1.01 0.91 C-1.09 1.23, -0.82 1.61, -0.45 1.9 C-0.08 2.18, 0.27 2.46, 1.22 2.61 C2.16 2.77, 3.79 2.94, 5.22 2.84 C6.65 2.75, 8.98 2.31, 9.78 2.05 C10.57 1.79, 10.12 1.45, 9.99 1.29 C9.86 1.13, 9.36 1.11, 9 1.09 C8.63 1.07, 8.28 1.11, 7.8 1.15 C7.33 1.19, 6.81 1.26, 6.14 1.32 C5.47 1.39, 4.55 1.53, 3.78 1.54 C3.01 1.54, 2.13 1.46, 1.52 1.34 C0.92 1.23, 0.4 1.08, 0.15 0.86 C-0.1 0.63, 0.02 0.14, 0 0 M0 0 C-0.17 0.15, -0.94 0.6, -1.01 0.91 C-1.09 1.23, -0.82 1.61, -0.45 1.9 C-0.08 2.18, 0.27 2.46, 1.22 2.61 C2.16 2.77, 3.79 2.94, 5.22 2.84 C6.65 2.75, 8.98 2.31, 9.78 2.05 C10.57 1.79, 10.12 1.45, 9.99 1.29 C9.86 1.13, 9.36 1.11, 9 1.09 C8.63 1.07, 8.28 1.11, 7.8 1.15 C7.33 1.19, 6.81 1.26, 6.14 1.32 C5.47 1.39, 4.55 1.53, 3.78 1.54 C3.01 1.54, 2.13 1.46, 1.52 1.34 C0.92 1.23, 0.4 1.08, 0.15 0.86 C-0.1 0.63, 0.02 0.14, 0 0" stroke="#1555a1" stroke-width="1" fill="none"></path></g></g><mask></mask><g stroke-linecap="round"><g transform="translate(53.355317879416816 499.2591195120864) rotate(0 -11.776423927237488 1.2064269526583757)" fill-rule="evenodd"><path d="M0 0 L-3.28 2.05 L-10.46 2.73 L-19.72 2.56 L-22.5 2.28 L-23.55 1.43 L-18.97 -0.34 L-21.97 0.98 L-16.33 1.86 L-7.31 1.9 L-3.04 1.43 L0 0" stroke="none" stroke-width="0" fill="#1555a1" fill-rule="evenodd"></path><path d="M0 0 C-0.14 0.15, -0.57 0.68, -0.82 0.92 C-1.08 1.15, -1.14 1.24, -1.55 1.43 C-1.96 1.62, -2.58 1.89, -3.28 2.05 C-3.97 2.22, -4.53 2.3, -5.73 2.42 C-6.93 2.53, -8.88 2.67, -10.46 2.73 C-12.03 2.78, -13.63 2.77, -15.18 2.74 C-16.72 2.71, -18.5 2.64, -19.72 2.56 C-20.94 2.48, -21.86 2.46, -22.5 2.28 C-23.14 2.09, -23.53 1.72, -23.55 1.43 C-23.58 1.15, -23.09 0.83, -22.65 0.57 C-22.22 0.32, -21.55 0.08, -20.94 -0.08 C-20.33 -0.23, -18.98 -0.39, -18.97 -0.34 C-18.96 -0.3, -20.41 -0.03, -20.91 0.19 C-21.41 0.41, -21.89 0.78, -21.97 0.98 C-22.06 1.18, -21.8 1.3, -21.42 1.4 C-21.05 1.51, -20.57 1.53, -19.73 1.6 C-18.88 1.68, -17.39 1.79, -16.33 1.86 C-15.27 1.92, -14.86 1.97, -13.36 1.97 C-11.85 1.98, -9.02 1.99, -7.31 1.9 C-5.59 1.81, -4.07 1.61, -3.04 1.43 C-2.01 1.25, -1.62 1.04, -1.12 0.8 C-0.61 0.57, -0.19 0.13, 0 0 M0 0 C-0.14 0.15, -0.57 0.68, -0.82 0.92 C-1.08 1.15, -1.14 1.24, -1.55 1.43 C-1.96 1.62, -2.58 1.89, -3.28 2.05 C-3.97 2.22, -4.53 2.3, -5.73 2.42 C-6.93 2.53, -8.88 2.67, -10.46 2.73 C-12.03 2.78, -13.63 2.77, -15.18 2.74 C-16.72 2.71, -18.5 2.64, -19.72 2.56 C-20.94 2.48, -21.86 2.46, -22.5 2.28 C-23.14 2.09, -23.53 1.72, -23.55 1.43 C-23.58 1.15, -23.09 0.83, -22.65 0.57 C-22.22 0.32, -21.55 0.08, -20.94 -0.08 C-20.33 -0.23, -18.98 -0.39, -18.97 -0.34 C-18.96 -0.3, -20.41 -0.03, -20.91 0.19 C-21.41 0.41, -21.89 0.78, -21.97 0.98 C-22.06 1.18, -21.8 1.3, -21.42 1.4 C-21.05 1.51, -20.57 1.53, -19.73 1.6 C-18.88 1.68, -17.39 1.79, -16.33 1.86 C-15.27 1.92, -14.86 1.97, -13.36 1.97 C-11.85 1.98, -9.02 1.99, -7.31 1.9 C-5.59 1.81, -4.07 1.61, -3.04 1.43 C-2.01 1.25, -1.62 1.04, -1.12 0.8 C-0.61 0.57, -0.19 0.13, 0 0" stroke="#1555a1" stroke-width="1" fill="none"></path></g></g><mask></mask><g stroke-linecap="round"><g transform="translate(34.94240462052949 503.20122322609257) rotate(0 10.139218192441035 -0.5380943132497009)" fill-rule="evenodd"><path d="M0 0 L4.32 0.74 L13.97 0.63 L18.18 -0.24 L20.3 -1.88 L15.96 -0.28 L-0.02 0.03" stroke="none" stroke-width="0" fill="#1555a1" fill-rule="evenodd"></path><path d="M0 0 C0.3 0.09, 1.06 0.39, 1.78 0.51 C2.5 0.64, 2.98 0.69, 4.32 0.74 C5.66 0.79, 8.2 0.83, 9.81 0.81 C11.41 0.79, 12.86 0.7, 13.97 0.63 C15.08 0.55, 15.75 0.5, 16.45 0.36 C17.15 0.22, 17.53 0.14, 18.18 -0.24 C18.82 -0.61, 20.25 -1.78, 20.3 -1.88 C20.35 -1.99, 19.22 -1.16, 18.49 -0.89 C17.77 -0.62, 16.95 -0.43, 15.96 -0.28 C14.97 -0.12, 13.76 -0.03, 12.57 0.04 C11.38 0.11, 9.94 0.12, 8.84 0.13 C7.73 0.15, 6.87 0.16, 5.94 0.14 C5 0.13, 4.21 0.08, 3.22 0.06 C2.22 0.05, 0.52 0.03, -0.02 0.03 M0 0 C0.3 0.09, 1.06 0.39, 1.78 0.51 C2.5 0.64, 2.98 0.69, 4.32 0.74 C5.66 0.79, 8.2 0.83, 9.81 0.81 C11.41 0.79, 12.86 0.7, 13.97 0.63 C15.08 0.55, 15.75 0.5, 16.45 0.36 C17.15 0.22, 17.53 0.14, 18.18 -0.24 C18.82 -0.61, 20.25 -1.78, 20.3 -1.88 C20.35 -1.99, 19.22 -1.16, 18.49 -0.89 C17.77 -0.62, 16.95 -0.43, 15.96 -0.28 C14.97 -0.12, 13.76 -0.03, 12.57 0.04 C11.38 0.11, 9.94 0.12, 8.84 0.13 C7.73 0.15, 6.87 0.16, 5.94 0.14 C5 0.13, 4.21 0.08, 3.22 0.06 C2.22 0.05, 0.52 0.03, -0.02 0.03" stroke="#1555a1" stroke-width="1" fill="none"></path></g></g><mask></mask><g stroke-linecap="round"><g transform="translate(46.20973635575638 469.1746161324089) rotate(0 -3.5563936932072977 9.314740515235087)" fill-rule="evenodd"><path d="M0 0 L0.78 1.82 L0.21 5.03 L-6.03 12.48 L-6.09 14.22 L-3.92 18.63 L-7.05 15.15 L-8 12.22 L-6.29 9.42 L-0.31 3.86 L-0.13 -0.05" stroke="none" stroke-width="0" fill="#fc090f" fill-rule="evenodd"></path><path d="M0 0 C0.13 0.3, 0.64 1.28, 0.78 1.82 C0.92 2.37, 0.93 2.75, 0.83 3.29 C0.74 3.82, 0.55 4.47, 0.21 5.03 C-0.13 5.6, -0.71 6.14, -1.2 6.66 C-1.7 7.18, -2.09 7.5, -2.74 8.17 C-3.39 8.83, -4.54 9.93, -5.09 10.64 C-5.64 11.36, -5.86 11.88, -6.03 12.48 C-6.2 13.07, -6.2 13.64, -6.09 14.22 C-5.99 14.81, -5.7 15.38, -5.38 16 C-5.06 16.62, -4.42 17.52, -4.17 17.96 C-3.93 18.4, -3.66 18.85, -3.92 18.63 C-4.18 18.4, -5.2 17.22, -5.72 16.64 C-6.24 16.06, -6.7 15.65, -7.05 15.15 C-7.4 14.66, -7.64 14.15, -7.8 13.66 C-7.96 13.17, -8.03 12.65, -8 12.22 C-7.97 11.79, -7.92 11.54, -7.63 11.08 C-7.35 10.61, -6.95 10.05, -6.29 9.42 C-5.62 8.79, -4.44 7.95, -3.64 7.31 C-2.85 6.67, -2.07 6.17, -1.51 5.59 C-0.95 5.02, -0.58 4.45, -0.31 3.86 C-0.03 3.27, 0.13 2.7, 0.16 2.05 C0.19 1.4, -0.08 0.3, -0.13 -0.05 M0 0 C0.13 0.3, 0.64 1.28, 0.78 1.82 C0.92 2.37, 0.93 2.75, 0.83 3.29 C0.74 3.82, 0.55 4.47, 0.21 5.03 C-0.13 5.6, -0.71 6.14, -1.2 6.66 C-1.7 7.18, -2.09 7.5, -2.74 8.17 C-3.39 8.83, -4.54 9.93, -5.09 10.64 C-5.64 11.36, -5.86 11.88, -6.03 12.48 C-6.2 13.07, -6.2 13.64, -6.09 14.22 C-5.99 14.81, -5.7 15.38, -5.38 16 C-5.06 16.62, -4.42 17.52, -4.17 17.96 C-3.93 18.4, -3.66 18.85, -3.92 18.63 C-4.18 18.4, -5.2 17.22, -5.72 16.64 C-6.24 16.06, -6.7 15.65, -7.05 15.15 C-7.4 14.66, -7.64 14.15, -7.8 13.66 C-7.96 13.17, -8.03 12.65, -8 12.22 C-7.97 11.79, -7.92 11.54, -7.63 11.08 C-7.35 10.61, -6.95 10.05, -6.29 9.42 C-5.62 8.79, -4.44 7.95, -3.64 7.31 C-2.85 6.67, -2.07 6.17, -1.51 5.59 C-0.95 5.02, -0.58 4.45, -0.31 3.86 C-0.03 3.27, 0.13 2.7, 0.16 2.05 C0.19 1.4, -0.08 0.3, -0.13 -0.05" stroke="#fc090f" stroke-width="1" fill="none"></path></g></g><mask></mask><g stroke-linecap="round"><g transform="translate(50.149474388050294 476.3899401961402) rotate(0 -3.6116541057125744 6.439094703312776)" fill-rule="evenodd"><path d="M0 0 L-5.05 2.32 L-7.13 4.94 L-7.1 7.2 L-5.25 10.82 L-6.44 12.68 L-3.62 9.86 L-5.33 6.8 L-5.43 4.91 L-0.02 0.02" stroke="none" stroke-width="0" fill="#fc090f" fill-rule="evenodd"></path><path d="M0 0 C-0.39 0.14, -1.76 0.6, -2.34 0.83 C-2.93 1.07, -3.04 1.15, -3.49 1.4 C-3.94 1.65, -4.6 1.97, -5.05 2.32 C-5.51 2.66, -5.87 3.03, -6.21 3.47 C-6.56 3.9, -6.98 4.32, -7.13 4.94 C-7.28 5.56, -7.23 6.56, -7.1 7.2 C-6.98 7.84, -6.63 8.33, -6.36 8.76 C-6.09 9.19, -5.66 9.43, -5.48 9.78 C-5.29 10.12, -5.08 10.33, -5.25 10.82 C-5.41 11.3, -6.25 12.37, -6.44 12.68 C-6.63 12.99, -6.67 12.89, -6.39 12.7 C-6.1 12.5, -5.2 11.99, -4.74 11.52 C-4.28 11.05, -3.76 10.4, -3.62 9.86 C-3.49 9.33, -3.63 8.83, -3.92 8.32 C-4.2 7.8, -5.07 7.37, -5.33 6.8 C-5.58 6.23, -5.55 5.44, -5.43 4.91 C-5.31 4.39, -5.07 4.15, -4.6 3.64 C-4.13 3.13, -3.35 2.46, -2.59 1.85 C-1.83 1.25, -0.45 0.32, -0.02 0.02 M0 0 C-0.39 0.14, -1.76 0.6, -2.34 0.83 C-2.93 1.07, -3.04 1.15, -3.49 1.4 C-3.94 1.65, -4.6 1.97, -5.05 2.32 C-5.51 2.66, -5.87 3.03, -6.21 3.47 C-6.56 3.9, -6.98 4.32, -7.13 4.94 C-7.28 5.56, -7.23 6.56, -7.1 7.2 C-6.98 7.84, -6.63 8.33, -6.36 8.76 C-6.09 9.19, -5.66 9.43, -5.48 9.78 C-5.29 10.12, -5.08 10.33, -5.25 10.82 C-5.41 11.3, -6.25 12.37, -6.44 12.68 C-6.63 12.99, -6.67 12.89, -6.39 12.7 C-6.1 12.5, -5.2 11.99, -4.74 11.52 C-4.28 11.05, -3.76 10.4, -3.62 9.86 C-3.49 9.33, -3.63 8.83, -3.92 8.32 C-4.2 7.8, -5.07 7.37, -5.33 6.8 C-5.58 6.23, -5.55 5.44, -5.43 4.91 C-5.31 4.39, -5.07 4.15, -4.6 3.64 C-4.13 3.13, -3.35 2.46, -2.59 1.85 C-1.83 1.25, -0.45 0.32, -0.02 0.02" stroke="#fc090f" stroke-width="1" fill="none"></path></g></g><mask></mask><g transform="translate(122.08767365538347 518.1612599383847) rotate(0 16.5 10.5)"><text x="0" y="15" font-family="Virgil, Segoe UI Emoji" font-size="16.31232669562789px" fill="#000" text-anchor="start" style="white-space: pre;" direction="ltr">APK</text></g><g stroke-linecap="round" transform="translate(103.45850066421542 415.6773926901625) rotate(0 35.82931234344619 48.828157290446825)"><path d="M0.02 -1.27 L72.87 -0.94 L69.66 99.4 L-1.65 96.34" stroke="none" stroke-width="0" fill="#f48284"></path><path d="M1.86 -1.64 C16.61 1.92, 31.05 0.21, 73.45 0.62 M-0.82 0.8 C22.08 -0.99, 43.82 -1.3, 71.89 -0.51 M72.7 -1.28 C72.05 35.53, 69.62 71.43, 73.5 95.77 M72.56 0.57 C72.13 23.41, 72.5 47.4, 71.17 98.62 M73.23 97.84 C46.38 97.48, 25.99 100.09, -0.85 96.13 M72.62 96.67 C43.71 97.86, 15.08 98.8, 0.1 96.66 M0.1 98.45 C-2 77.8, 1.71 57.91, -0.96 0.5 M-0.21 97.29 C1.05 63.05, 0.14 28.01, -0.91 -0.5" stroke="#000000" stroke-width="4" fill="none"></path></g><g stroke-linecap="round" transform="translate(135.5377959691616 427.45064866917767) rotate(0 23.789871764893235 12.234245021720938)"><path d="M-1.27 1.21 L46.64 -2 L49.32 22.82 L-1.32 24.18" stroke="none" stroke-width="0" fill="#fff"></path><path d="M-1.64 1.56 C18.95 0.52, 34.32 1.35, 48.2 0.08 M0.8 0.29 C9.08 0.63, 18.37 0.62, 47.07 0.71 M46.3 0.64 C46.97 4.92, 46.68 15.25, 45.69 23.42 M48.15 0.41 C46.99 8.28, 46.8 14.51, 48.54 24.75 M47.76 22.74 C31.51 26.27, 18.87 24, -1.53 26.43 M46.59 25.05 C30.61 25.41, 15.09 25.03, -0.99 23.5 M0.8 22.58 C-0.04 18.67, -0.12 8.27, 0.5 1.09 M-0.37 25.04 C0 17.99, -0.44 11.28, -0.5 0.01" stroke="#000000" stroke-width="4" fill="none"></path></g><g transform="translate(143.11528712916606 431.0572648813394) rotate(0 16.5 10.5)"><text x="0" y="15" font-family="Virgil, Segoe UI Emoji" font-size="16.31232669562789px" fill="#000000" text-anchor="start" style="white-space: pre;" direction="ltr">APK</text></g><g stroke-linecap="round"><g transform="translate(120.37383896661163 468.2872835053821) rotate(0 3.0962394544895346 2.955996281690318)"><path d="M0 0 C2.43 2.32, 4.87 4.64, 6.19 5.91 M0 0 C1.35 1.29, 2.71 2.58, 6.19 5.91" stroke="#000" stroke-width="4" fill="none"></path></g></g><mask></mask><g stroke-linecap="round"><g transform="translate(157.0013128784335 475.71244413744887) rotate(0 2.8448129255066874 -3.5315649969446667)"><path d="M0 0 C1.24 -1.54, 2.48 -3.08, 5.69 -7.06 M0 0 C2.16 -2.69, 4.33 -5.37, 5.69 -7.06" stroke="#000" stroke-width="4" fill="none"></path></g></g><mask></mask><g stroke-linecap="round"><g transform="translate(118.01718255460878 496.52620215072886) rotate(0 22.02692035984495 -13.16381377287496)" fill-rule="evenodd"><path d="M0 0 L42.92 0.03 L45.6 -2.55 L45.79 -5.33 L44.36 -12.84 L40.93 -19.02 L34.35 -24.21 L28.46 -26.05 L21.16 -26.42 L14.77 -25.57 L7.37 -22.23 L3.21 -18.07 L0.31 -12.79 L-1.49 -7.26 L-1.39 -0.03" stroke="none" stroke-width="0" fill="#aed796" fill-rule="evenodd"></path><path d="M0 0 C6.18 0.01, 29.68 0.19, 37.07 0.09 C44.45 -0.02, 42.86 0.28, 44.32 -0.63 C45.77 -1.53, 45.78 -3.29, 45.79 -5.33 C45.8 -7.36, 45.17 -10.55, 44.36 -12.84 C43.55 -15.12, 42.6 -17.13, 40.93 -19.02 C39.26 -20.92, 36.43 -23.04, 34.35 -24.21 C32.27 -25.38, 30.66 -25.68, 28.46 -26.05 C26.26 -26.42, 23.44 -26.5, 21.16 -26.42 C18.88 -26.34, 17.07 -26.27, 14.77 -25.57 C12.48 -24.87, 9.3 -23.48, 7.37 -22.23 C5.44 -20.98, 4.38 -19.64, 3.21 -18.07 C2.03 -16.5, 1.09 -14.6, 0.31 -12.79 C-0.47 -10.99, -1.15 -9.05, -1.49 -7.26 C-1.82 -5.47, -1.73 -3.25, -1.71 -2.05 C-1.7 -0.84, -1.45 -0.36, -1.39 -0.03 M0 0 C6.18 0.01, 29.68 0.19, 37.07 0.09 C44.45 -0.02, 42.86 0.28, 44.32 -0.63 C45.77 -1.53, 45.78 -3.29, 45.79 -5.33 C45.8 -7.36, 45.17 -10.55, 44.36 -12.84 C43.55 -15.12, 42.6 -17.13, 40.93 -19.02 C39.26 -20.92, 36.43 -23.04, 34.35 -24.21 C32.27 -25.38, 30.66 -25.68, 28.46 -26.05 C26.26 -26.42, 23.44 -26.5, 21.16 -26.42 C18.88 -26.34, 17.07 -26.27, 14.77 -25.57 C12.48 -24.87, 9.3 -23.48, 7.37 -22.23 C5.44 -20.98, 4.38 -19.64, 3.21 -18.07 C2.03 -16.5, 1.09 -14.6, 0.31 -12.79 C-0.47 -10.99, -1.15 -9.05, -1.49 -7.26 C-1.82 -5.47, -1.73 -3.25, -1.71 -2.05 C-1.7 -0.84, -1.45 -0.36, -1.39 -0.03" stroke="#000" stroke-width="4" fill="none"></path></g></g><mask></mask><g stroke-linecap="round" transform="translate(129.21271497547468 481.4072074917668) rotate(0 1.3759232014861027 1.2001408685915749)"><path d="M2.75 1.2 C2.75 1.27, 2.74 1.34, 2.73 1.41 C2.72 1.48, 2.7 1.55, 2.67 1.61 C2.64 1.68, 2.61 1.74, 2.57 1.8 C2.53 1.86, 2.48 1.92, 2.43 1.97 C2.38 2.02, 2.32 2.07, 2.26 2.12 C2.2 2.16, 2.13 2.2, 2.06 2.24 C1.99 2.27, 1.92 2.3, 1.85 2.33 C1.77 2.35, 1.69 2.37, 1.61 2.38 C1.54 2.39, 1.46 2.4, 1.38 2.4 C1.3 2.4, 1.22 2.39, 1.14 2.38 C1.06 2.37, 0.98 2.35, 0.91 2.33 C0.83 2.3, 0.76 2.27, 0.69 2.24 C0.62 2.2, 0.55 2.16, 0.49 2.12 C0.43 2.07, 0.37 2.02, 0.32 1.97 C0.27 1.92, 0.22 1.86, 0.18 1.8 C0.14 1.74, 0.11 1.68, 0.08 1.61 C0.06 1.55, 0.03 1.48, 0.02 1.41 C0.01 1.34, 0 1.27, 0 1.2 C0 1.13, 0.01 1.06, 0.02 0.99 C0.03 0.92, 0.06 0.85, 0.08 0.79 C0.11 0.72, 0.14 0.66, 0.18 0.6 C0.22 0.54, 0.27 0.48, 0.32 0.43 C0.37 0.38, 0.43 0.33, 0.49 0.28 C0.55 0.24, 0.62 0.2, 0.69 0.16 C0.76 0.13, 0.83 0.1, 0.91 0.07 C0.98 0.05, 1.06 0.03, 1.14 0.02 C1.22 0.01, 1.3 0, 1.38 0 C1.46 0, 1.54 0.01, 1.61 0.02 C1.69 0.03, 1.77 0.05, 1.85 0.07 C1.92 0.1, 1.99 0.13, 2.06 0.16 C2.13 0.2, 2.2 0.24, 2.26 0.28 C2.32 0.33, 2.38 0.38, 2.43 0.43 C2.48 0.48, 2.53 0.54, 2.57 0.6 C2.61 0.66, 2.64 0.72, 2.67 0.79 C2.7 0.85, 2.72 0.92, 2.73 0.99 C2.74 1.06, 2.75 1.17, 2.75 1.2 C2.76 1.23, 2.76 1.17, 2.75 1.2" stroke="none" stroke-width="0" fill="#aed796"></path><path d="M2.75 1.2 C2.75 1.27, 2.74 1.34, 2.73 1.41 C2.72 1.48, 2.7 1.55, 2.67 1.61 C2.64 1.68, 2.61 1.74, 2.57 1.8 C2.53 1.86, 2.48 1.92, 2.43 1.97 C2.38 2.02, 2.32 2.07, 2.26 2.12 C2.2 2.16, 2.13 2.2, 2.06 2.24 C1.99 2.27, 1.92 2.3, 1.85 2.33 C1.77 2.35, 1.69 2.37, 1.61 2.38 C1.54 2.39, 1.46 2.4, 1.38 2.4 C1.3 2.4, 1.22 2.39, 1.14 2.38 C1.06 2.37, 0.98 2.35, 0.91 2.33 C0.83 2.3, 0.76 2.27, 0.69 2.24 C0.62 2.2, 0.55 2.16, 0.49 2.12 C0.43 2.07, 0.37 2.02, 0.32 1.97 C0.27 1.92, 0.22 1.86, 0.18 1.8 C0.14 1.74, 0.11 1.68, 0.08 1.61 C0.06 1.55, 0.03 1.48, 0.02 1.41 C0.01 1.34, 0 1.27, 0 1.2 C0 1.13, 0.01 1.06, 0.02 0.99 C0.03 0.92, 0.06 0.85, 0.08 0.79 C0.11 0.72, 0.14 0.66, 0.18 0.6 C0.22 0.54, 0.27 0.48, 0.32 0.43 C0.37 0.38, 0.43 0.33, 0.49 0.28 C0.55 0.24, 0.62 0.2, 0.69 0.16 C0.76 0.13, 0.83 0.1, 0.91 0.07 C0.98 0.05, 1.06 0.03, 1.14 0.02 C1.22 0.01, 1.3 0, 1.38 0 C1.46 0, 1.54 0.01, 1.61 0.02 C1.69 0.03, 1.77 0.05, 1.85 0.07 C1.92 0.1, 1.99 0.13, 2.06 0.16 C2.13 0.2, 2.2 0.24, 2.26 0.28 C2.32 0.33, 2.38 0.38, 2.43 0.43 C2.48 0.48, 2.53 0.54, 2.57 0.6 C2.61 0.66, 2.64 0.72, 2.67 0.79 C2.7 0.85, 2.72 0.92, 2.73 0.99 C2.74 1.06, 2.75 1.17, 2.75 1.2 C2.76 1.23, 2.76 1.17, 2.75 1.2" stroke="#000" stroke-width="4" fill="none"></path></g><g stroke-linecap="round" transform="translate(148.4073800865417 481.5910553111711) rotate(0 1.3759232014861027 1.2001408685915749)"><path d="M2.75 1.2 C2.75 1.27, 2.74 1.34, 2.73 1.41 C2.72 1.48, 2.7 1.55, 2.67 1.61 C2.64 1.68, 2.61 1.74, 2.57 1.8 C2.53 1.86, 2.48 1.92, 2.43 1.97 C2.38 2.02, 2.32 2.07, 2.26 2.12 C2.2 2.16, 2.13 2.2, 2.06 2.24 C1.99 2.27, 1.92 2.3, 1.85 2.33 C1.77 2.35, 1.69 2.37, 1.61 2.38 C1.54 2.39, 1.46 2.4, 1.38 2.4 C1.3 2.4, 1.22 2.39, 1.14 2.38 C1.06 2.37, 0.98 2.35, 0.91 2.33 C0.83 2.3, 0.76 2.27, 0.69 2.24 C0.62 2.2, 0.55 2.16, 0.49 2.12 C0.43 2.07, 0.37 2.02, 0.32 1.97 C0.27 1.92, 0.22 1.86, 0.18 1.8 C0.14 1.74, 0.11 1.68, 0.08 1.61 C0.06 1.55, 0.03 1.48, 0.02 1.41 C0.01 1.34, 0 1.27, 0 1.2 C0 1.13, 0.01 1.06, 0.02 0.99 C0.03 0.92, 0.06 0.85, 0.08 0.79 C0.11 0.72, 0.14 0.66, 0.18 0.6 C0.22 0.54, 0.27 0.48, 0.32 0.43 C0.37 0.38, 0.43 0.33, 0.49 0.28 C0.55 0.24, 0.62 0.2, 0.69 0.16 C0.76 0.13, 0.83 0.1, 0.91 0.07 C0.98 0.05, 1.06 0.03, 1.14 0.02 C1.22 0.01, 1.3 0, 1.38 0 C1.46 0, 1.54 0.01, 1.61 0.02 C1.69 0.03, 1.77 0.05, 1.85 0.07 C1.92 0.1, 1.99 0.13, 2.06 0.16 C2.13 0.2, 2.2 0.24, 2.26 0.28 C2.32 0.33, 2.38 0.38, 2.43 0.43 C2.48 0.48, 2.53 0.54, 2.57 0.6 C2.61 0.66, 2.64 0.72, 2.67 0.79 C2.7 0.85, 2.72 0.92, 2.73 0.99 C2.74 1.06, 2.75 1.17, 2.75 1.2 C2.76 1.23, 2.76 1.17, 2.75 1.2" stroke="none" stroke-width="0" fill="#aed796"></path><path d="M2.75 1.2 C2.75 1.27, 2.74 1.34, 2.73 1.41 C2.72 1.48, 2.7 1.55, 2.67 1.61 C2.64 1.68, 2.61 1.74, 2.57 1.8 C2.53 1.86, 2.48 1.92, 2.43 1.97 C2.38 2.02, 2.32 2.07, 2.26 2.12 C2.2 2.16, 2.13 2.2, 2.06 2.24 C1.99 2.27, 1.92 2.3, 1.85 2.33 C1.77 2.35, 1.69 2.37, 1.61 2.38 C1.54 2.39, 1.46 2.4, 1.38 2.4 C1.3 2.4, 1.22 2.39, 1.14 2.38 C1.06 2.37, 0.98 2.35, 0.91 2.33 C0.83 2.3, 0.76 2.27, 0.69 2.24 C0.62 2.2, 0.55 2.16, 0.49 2.12 C0.43 2.07, 0.37 2.02, 0.32 1.97 C0.27 1.92, 0.22 1.86, 0.18 1.8 C0.14 1.74, 0.11 1.68, 0.08 1.61 C0.06 1.55, 0.03 1.48, 0.02 1.41 C0.01 1.34, 0 1.27, 0 1.2 C0 1.13, 0.01 1.06, 0.02 0.99 C0.03 0.92, 0.06 0.85, 0.08 0.79 C0.11 0.72, 0.14 0.66, 0.18 0.6 C0.22 0.54, 0.27 0.48, 0.32 0.43 C0.37 0.38, 0.43 0.33, 0.49 0.28 C0.55 0.24, 0.62 0.2, 0.69 0.16 C0.76 0.13, 0.83 0.1, 0.91 0.07 C0.98 0.05, 1.06 0.03, 1.14 0.02 C1.22 0.01, 1.3 0, 1.38 0 C1.46 0, 1.54 0.01, 1.61 0.02 C1.69 0.03, 1.77 0.05, 1.85 0.07 C1.92 0.1, 1.99 0.13, 2.06 0.16 C2.13 0.2, 2.2 0.24, 2.26 0.28 C2.32 0.33, 2.38 0.38, 2.43 0.43 C2.48 0.48, 2.53 0.54, 2.57 0.6 C2.61 0.66, 2.64 0.72, 2.67 0.79 C2.7 0.85, 2.72 0.92, 2.73 0.99 C2.74 1.06, 2.75 1.17, 2.75 1.2 C2.76 1.23, 2.76 1.17, 2.75 1.2" stroke="#000" stroke-width="4" fill="none"></path></g><g stroke-linecap="round"><g transform="translate(335.4392765693467 467.51473249556045) rotate(0 374.1578976658069 -47.655107166411085)"><path d="M0.43 0.24 C124.9 -15.82, 623.14 -79.68, 747.89 -95.55" stroke="#c92a2a" stroke-width="2.5" fill="none" stroke-dasharray="8 10"></path></g><g transform="translate(335.4392765693467 467.51473249556045) rotate(0 374.1578976658069 -47.655107166411085)"><path d="M746.73 -94.93 L734.82 -89.27 L733.21 -101.35 L746.44 -95.09" stroke="none" stroke-width="0" fill="#c92a2a" fill-rule="evenodd"></path><path d="M748.19 -95.42 C743.04 -90.96, 738.79 -90.49, 734.4 -88.53 M736.32 -88.24 C735.59 -91.01, 734.22 -95.47, 732.58 -99.88 M734.62 -99.94 C738 -98.15, 738.64 -97.75, 747.81 -95.63 M747.89 -95.55 C747.89 -95.55, 747.89 -95.55, 747.89 -95.55" stroke="#c92a2a" stroke-width="2.5" fill="none"></path></g></g><mask></mask><g stroke-linecap="round"><g transform="translate(336.95797319135875 503.0971514334175) rotate(0 375.1226706113667 -49.366918721422564)"><path d="M0.24 0.11 C125.11 -16.44, 624.95 -82, 750 -98.84" stroke="#c92a2a" stroke-width="2.5" fill="none" stroke-dasharray="8 10"></path></g><g transform="translate(336.95797319135875 503.0971514334175) rotate(0 375.1226706113667 -49.366918721422564)"><path d="M0.87 -0.27 L11.16 -8.34 L13.32 3.17 L0.71 0.85" stroke="none" stroke-width="0" fill="#c92a2a" fill-rule="evenodd"></path><path d="M0.38 0.11 C6.33 -2.23, 8.38 -6.67, 11.91 -7.7 M12.2 -7.06 C13.85 -4.18, 13.87 -1.47, 14.79 3.68 M14.73 5.77 C10.57 1.74, 5.04 1.55, 0.17 1.06 M0.24 0.11 C0.24 0.11, 0.24 0.11, 0.24 0.11" stroke="#c92a2a" stroke-width="2.5" fill="none"></path></g></g><mask></mask><g transform="translate(602.087093111103 375.8894432085906) rotate(353.29016319224286 40.50000000000006 18.5)"><text x="0" y="26" font-family="Virgil, Segoe UI Emoji" font-size="28px" fill="#c92a2a" text-anchor="start" style="white-space: pre;" direction="ltr">HTTP</text></g></svg>